<svg xmlns="http://www.w3.org/2000/svg" xmlns:xlink="http://www.w3.org/1999/xlink" width="321" zoomAndPan="magnify" viewBox="0 0 240.75 141.750002" height="189" preserveAspectRatio="xMidYMid meet" version="1.0"><defs><clipPath id="id1"><path d="M 0.277344 9.039062 L 240.414062 9.039062 L 240.414062 111.363281 L 0.277344 111.363281 Z M 0.277344 9.039062 " clip-rule="nonzero"/></clipPath></defs><g clip-path="url(#id1)"><path fill="rgb(19.999695%, 33.729553%, 26.669312%)" d="M 169.582031 111.316406 C 169.757812 110.921875 169.621094 110.636719 169.550781 110.34375 C 169.402344 109.753906 169.234375 109.167969 169.097656 108.566406 C 168.320312 105.164062 168.375 101.71875 168.585938 98.269531 C 168.820312 94.519531 168.925781 90.769531 168.894531 87.011719 C 168.878906 84.457031 168.570312 81.949219 167.726562 79.527344 C 167.472656 78.816406 167.28125 78.070312 167.0625 77.339844 C 166.25 74.617188 164.570312 72.375 163.035156 70.046875 C 161.578125 67.839844 159.839844 65.867188 158.007812 63.96875 C 157.199219 63.128906 156.414062 62.277344 155.449219 61.605469 C 154.964844 61.234375 154.507812 60.832031 154.078125 60.402344 C 153.988281 60.34375 153.925781 60.257812 153.898438 60.152344 C 153.867188 60.050781 153.871094 59.945312 153.914062 59.847656 C 154.285156 59.566406 154.695312 59.765625 155.039062 59.90625 C 156.863281 60.648438 158.804688 61.09375 160.554688 62.039062 C 161.351562 62.472656 162.191406 62.847656 162.945312 63.355469 C 165.761719 65.242188 168.664062 66.992188 171.367188 69.058594 C 173.492188 70.6875 175.726562 72.191406 177.957031 73.683594 C 181.226562 75.863281 184.808594 77.417969 188.5625 78.484375 C 192.726562 79.679688 196.972656 80.214844 201.300781 80.085938 C 203.625 80.019531 205.949219 79.890625 208.261719 79.699219 C 210.226562 79.539062 212.191406 79.398438 214.15625 79.242188 C 214.59375 79.207031 215.058594 79.230469 215.378906 78.925781 C 215.460938 78.570312 215.238281 78.515625 215.058594 78.445312 C 214.394531 78.199219 213.734375 77.929688 213.0625 77.722656 C 211.792969 77.332031 210.640625 76.699219 209.476562 76.085938 C 209.230469 75.957031 208.945312 75.832031 208.855469 75.398438 C 209.660156 75.4375 210.40625 75.460938 211.15625 75.507812 C 215.230469 75.773438 219.230469 75.300781 223.199219 74.402344 C 226.417969 73.691406 229.445312 72.453125 232.4375 71.097656 C 234.839844 70 237.128906 68.707031 239.308594 67.21875 C 239.832031 66.902344 240.292969 66.507812 240.691406 66.042969 C 240.765625 65.964844 240.804688 65.875 240.808594 65.769531 C 240.8125 65.664062 240.78125 65.566406 240.710938 65.488281 C 240.625 65.382812 240.449219 65.253906 240.34375 65.277344 C 239.128906 65.546875 237.925781 65.207031 236.71875 65.226562 C 234.929688 65.253906 233.199219 64.882812 231.488281 64.410156 C 227.582031 63.328125 223.855469 61.777344 220.183594 60.050781 C 217.125 58.613281 214.113281 57.027344 210.828125 56.121094 C 207.394531 55.15625 203.898438 54.75 200.339844 54.898438 C 196.84375 55.058594 193.394531 55.546875 189.988281 56.363281 C 189.355469 56.511719 188.824219 56.472656 188.265625 56.109375 C 187.496094 55.617188 186.675781 55.226562 185.804688 54.9375 C 185.527344 54.84375 185.230469 54.742188 185.0625 54.457031 C 185.003906 54.132812 185.253906 54.027344 185.464844 53.894531 C 188.082031 52.253906 190.582031 50.445312 192.964844 48.472656 C 194.53125 47.183594 195.941406 45.742188 197.195312 44.144531 C 198.488281 42.507812 199.566406 40.730469 200.777344 39.042969 C 202.480469 36.707031 204.296875 34.460938 206.226562 32.308594 C 206.425781 32.082031 206.671875 31.894531 206.878906 31.675781 C 207.085938 31.457031 207.285156 31.226562 207.46875 30.984375 C 207.585938 30.828125 207.746094 30.679688 207.6875 30.449219 C 207.617188 30.226562 207.46875 30.117188 207.234375 30.121094 C 206.78125 30.078125 206.328125 30.058594 205.871094 30.0625 C 203.949219 30.128906 202.035156 30.035156 200.113281 29.949219 C 195.296875 29.726562 190.503906 29.902344 185.808594 31.121094 C 183.695312 31.660156 181.664062 32.433594 179.722656 33.433594 C 178.777344 33.921875 177.832031 34.40625 176.890625 34.890625 C 174.703125 36.007812 172.878906 37.589844 171.113281 39.28125 C 169.453125 40.875 168.09375 42.683594 166.863281 44.617188 C 166.128906 45.773438 165.378906 46.921875 164.574219 48.027344 C 163.648438 49.296875 162.625 50.492188 161.699219 51.761719 C 160.859375 52.910156 159.9375 53.984375 158.925781 54.984375 C 158.308594 55.585938 157.632812 56.113281 156.898438 56.566406 C 155.710938 57.320312 154.414062 57.65625 153.011719 57.570312 C 150.507812 57.480469 148.109375 56.882812 145.695312 56.324219 C 144.222656 55.980469 142.777344 55.5 141.3125 55.109375 C 139.601562 54.65625 137.878906 54.257812 136.175781 53.792969 C 133.101562 52.953125 130.039062 52.078125 126.964844 51.222656 C 126.039062 50.964844 125.109375 50.726562 124.179688 50.480469 C 122.714844 50.097656 121.246094 49.722656 119.78125 49.328125 C 118.320312 48.902344 116.835938 48.601562 115.328125 48.425781 C 114.917969 48.386719 114.382812 48.492188 114.113281 47.867188 C 114.644531 47.660156 115.140625 47.433594 115.660156 47.265625 C 117.679688 46.585938 119.601562 45.6875 121.417969 44.566406 C 122.210938 44.066406 123.078125 43.84375 124.011719 43.898438 C 125.636719 44 127.242188 43.808594 128.851562 43.660156 C 130.164062 43.539062 131.46875 43.371094 132.777344 43.289062 C 135.15625 43.125 137.5 42.742188 139.808594 42.140625 C 142.550781 41.449219 145.28125 40.699219 147.976562 39.8125 C 150.542969 38.964844 152.933594 37.792969 155.273438 36.484375 C 157.613281 35.175781 159.542969 33.417969 161.296875 31.421875 C 162.730469 29.773438 164.015625 28.003906 164.96875 26.03125 C 165.65625 24.5625 166.265625 23.058594 166.804688 21.527344 C 167.347656 20.046875 167.910156 18.597656 168.753906 17.257812 C 169.398438 16.234375 169.828125 15.078125 170.367188 13.988281 C 171.113281 12.476562 172.039062 11.09375 173.367188 10.015625 C 173.519531 9.882812 173.652344 9.734375 173.773438 9.570312 C 173.898438 9.410156 173.859375 9.273438 173.582031 8.78125 C 173.105469 8.730469 172.726562 9.03125 172.296875 9.15625 C 168.648438 10.199219 164.992188 11.246094 161.214844 11.679688 C 158.203125 12.050781 155.21875 12.59375 152.269531 13.308594 C 150.828125 13.640625 149.492188 14.234375 148.183594 14.90625 C 145.414062 16.3125 142.914062 18.109375 140.5 20.046875 C 138.949219 21.292969 137.640625 22.769531 136.347656 24.261719 C 136.015625 24.644531 135.699219 25.035156 135.339844 25.390625 C 134.695312 26.039062 134.121094 26.746094 133.621094 27.511719 C 132.617188 29.035156 131.4375 30.4375 130.535156 32.035156 C 129.589844 33.710938 128.660156 35.402344 127.652344 37.039062 C 126.375 39.117188 125.019531 41.15625 122.882812 42.464844 C 121.761719 43.152344 120.601562 43.777344 119.425781 44.359375 C 116.019531 46.058594 112.421875 46.972656 108.621094 47.109375 C 107.449219 47.152344 106.300781 46.996094 105.148438 46.839844 C 102.640625 46.5 100.128906 46.292969 97.597656 46.445312 C 95.730469 46.5625 93.863281 46.695312 91.996094 46.828125 C 91.546875 46.859375 91.09375 46.921875 90.679688 46.695312 C 90.585938 46.277344 90.921875 46.164062 91.140625 45.984375 C 94.050781 43.753906 96.59375 41.140625 98.914062 38.3125 C 100.753906 36.074219 102.347656 33.667969 103.683594 31.089844 C 104.378906 29.746094 104.855469 28.285156 105.429688 26.878906 C 106.621094 23.96875 107.816406 21.054688 109.007812 18.148438 C 109.496094 16.964844 110.25 15.933594 110.933594 14.875 C 111.269531 14.367188 111.753906 13.984375 112.230469 13.597656 C 112.859375 13.089844 113.453125 12.539062 114.0625 11.996094 C 114.179688 11.898438 114.285156 11.792969 114.378906 11.671875 C 114.441406 11.574219 114.480469 11.472656 114.492188 11.359375 C 114.503906 11.246094 114.488281 11.136719 114.449219 11.03125 C 114.40625 10.921875 114.34375 10.832031 114.257812 10.757812 C 114.175781 10.683594 114.078125 10.632812 113.96875 10.605469 C 113.667969 10.558594 113.363281 10.539062 113.0625 10.539062 C 110.332031 10.515625 107.597656 10.570312 104.894531 10.960938 C 102.496094 11.300781 100.128906 11.769531 97.859375 12.738281 C 95.808594 13.613281 93.785156 14.496094 91.835938 15.582031 C 90.738281 16.199219 89.609375 16.765625 88.554688 17.464844 C 87.3125 18.257812 86.164062 19.164062 85.105469 20.1875 C 83.453125 21.835938 81.925781 23.566406 80.660156 25.558594 C 78.402344 29.089844 76.726562 32.890625 75.375 36.820312 C 74.601562 39.070312 73.992188 41.382812 73.3125 43.667969 C 73.210938 44.0625 73.082031 44.445312 72.925781 44.820312 C 72.339844 46.113281 71.738281 47.398438 71.125 48.683594 C 70.605469 49.742188 69.902344 50.664062 69.019531 51.445312 C 68.640625 51.808594 68.195312 52.023438 67.679688 52.097656 C 63.914062 52.632812 60.242188 53.597656 56.59375 54.625 C 54.019531 55.347656 51.445312 56.058594 48.976562 57.125 C 46.9375 58.003906 44.789062 58.621094 42.703125 59.398438 C 39.910156 60.441406 37.097656 61.453125 34.414062 62.769531 C 32.238281 63.835938 30.097656 64.980469 27.929688 66.066406 C 26.75 66.65625 25.554688 67.199219 24.363281 67.757812 C 24.136719 67.867188 23.890625 67.9375 23.65625 68.050781 C 21.53125 69.105469 19.378906 70.125 17.28125 71.234375 C 14.101562 72.90625 10.945312 74.617188 7.804688 76.359375 C 5.730469 77.511719 3.703125 78.761719 1.65625 79.96875 C 1.484375 80.078125 1.320312 80.195312 1.160156 80.324219 C 0.332031 80.964844 0.273438 81.3125 0.839844 82.386719 C 1.277344 82.53125 1.621094 82.316406 1.953125 82.074219 C 2.855469 81.417969 3.765625 80.777344 4.640625 80.09375 C 6.042969 78.992188 7.589844 78.125 9.089844 77.191406 C 12.097656 75.304688 15.210938 73.621094 18.433594 72.140625 C 20.382812 71.261719 22.222656 70.214844 24.070312 69.164062 C 25.5625 68.308594 27.097656 67.535156 28.675781 66.839844 C 31.132812 65.773438 33.535156 64.574219 35.992188 63.511719 C 37.777344 62.738281 37.289062 62.621094 39.144531 63.714844 C 42.039062 65.429688 44.492188 67.695312 47 69.90625 C 48.675781 71.390625 50.074219 73.132812 51.347656 74.96875 C 52.410156 76.515625 53.457031 78.074219 54.445312 79.667969 C 56.261719 82.601562 58.289062 85.390625 60.289062 88.191406 C 61.8125 90.328125 63.796875 91.984375 65.917969 93.472656 C 69.316406 95.855469 72.789062 98.132812 76.476562 100.050781 C 78.367188 101.035156 80.394531 101.695312 82.40625 102.378906 C 82.832031 102.523438 83.289062 102.574219 83.734375 102.136719 C 83.441406 101.078125 83.039062 100.066406 82.53125 99.09375 C 82.082031 98.1875 81.589844 97.296875 81.203125 96.359375 C 80.28125 94.132812 79.949219 91.765625 79.757812 89.378906 C 79.566406 86.628906 79.003906 83.957031 78.070312 81.363281 C 77.472656 79.683594 76.730469 78.074219 75.84375 76.535156 C 74.824219 74.808594 73.566406 73.332031 71.875 72.214844 C 69.847656 70.875 67.914062 69.394531 65.6875 68.382812 C 65 68.070312 64.289062 67.800781 63.601562 67.492188 C 60.320312 65.984375 56.832031 65.15625 53.371094 64.195312 C 50.527344 63.410156 47.625 63.039062 44.738281 62.554688 C 43.59375 62.363281 42.4375 62.179688 41.296875 61.984375 C 41.101562 61.953125 40.894531 61.9375 40.765625 61.730469 C 40.808594 61.304688 41.175781 61.195312 41.476562 61.082031 C 43.277344 60.414062 45.066406 59.699219 46.902344 59.132812 C 51.539062 57.703125 56.191406 56.316406 60.859375 54.972656 C 62.507812 54.5 64.222656 54.230469 65.902344 53.886719 C 66.199219 53.8125 66.5 53.808594 66.800781 53.878906 C 67.863281 54.199219 68.910156 53.96875 69.953125 53.824219 C 71.40625 53.628906 72.851562 53.378906 74.300781 53.148438 C 74.351562 53.152344 74.402344 53.144531 74.449219 53.132812 C 75.867188 52.527344 77.175781 52.980469 78.515625 53.511719 C 81.578125 54.734375 84.496094 56.179688 87.171875 58.167969 C 89.898438 60.191406 92.503906 62.363281 95.203125 64.421875 C 96.972656 65.773438 98.476562 67.445312 100.160156 68.910156 C 101.152344 69.773438 102.164062 70.613281 103.1875 71.445312 C 103.539062 71.738281 103.917969 71.988281 104.328125 72.195312 C 106.316406 73.195312 108.269531 74.277344 110.414062 74.921875 C 110.851562 75.050781 111.289062 75.1875 111.59375 75.570312 C 112.523438 76.746094 113.738281 77.578125 115.019531 78.292969 C 116.382812 79.058594 117.71875 79.878906 119.160156 80.507812 C 120.046875 80.894531 120.96875 81.152344 121.878906 81.457031 C 125.355469 82.652344 128.933594 83.207031 132.609375 83.117188 C 134.285156 83.058594 135.933594 82.804688 137.546875 82.351562 C 139.425781 81.859375 141.152344 81.042969 142.734375 79.914062 C 142.835938 79.820312 142.921875 79.710938 142.988281 79.59375 C 143.015625 79.308594 142.929688 79.066406 142.730469 78.863281 C 141.269531 77.109375 140.105469 75.128906 138.625 73.390625 C 138.015625 72.644531 137.476562 71.851562 137 71.011719 C 136.027344 69.394531 134.855469 67.9375 133.492188 66.636719 C 131.015625 64.210938 128.179688 62.285156 125.1875 60.558594 C 122.484375 59 119.578125 58.003906 116.632812 57.085938 C 114.945312 56.554688 113.246094 56.070312 111.542969 55.585938 C 110.855469 55.390625 110.199219 55.179688 109.675781 54.644531 C 107.910156 52.828125 105.714844 51.671875 103.523438 50.515625 C 102.132812 49.78125 100.640625 49.285156 99.171875 48.738281 C 98.910156 48.640625 98.546875 48.640625 98.488281 48.242188 C 98.605469 48.03125 98.804688 48.027344 99.003906 48.019531 C 100.46875 47.945312 101.933594 47.972656 103.394531 48.101562 C 106.863281 48.457031 110.335938 48.765625 113.808594 49.113281 C 116.230469 49.367188 118.597656 49.875 120.914062 50.628906 C 121.875 50.9375 122.863281 51.164062 123.84375 51.414062 C 125.898438 51.953125 127.953125 52.492188 130.003906 53.035156 C 130.6875 53.210938 131.375 53.390625 132.046875 53.609375 C 134.839844 54.515625 137.617188 55.453125 140.410156 56.351562 C 142.730469 57.09375 145.101562 57.589844 147.523438 57.835938 C 148.179688 57.902344 148.835938 57.941406 149.484375 58.289062 C 149.839844 59.164062 149.898438 60.105469 149.839844 61.078125 C 149.671875 63.511719 149.25 65.914062 148.84375 68.3125 C 148.382812 71.121094 148.085938 73.945312 147.957031 76.785156 C 147.855469 78.855469 147.898438 80.945312 148.3125 83.011719 C 148.566406 84.257812 148.757812 85.511719 148.992188 86.757812 C 149.3125 88.464844 149.984375 90.03125 150.671875 91.625 C 151.878906 94.421875 153.757812 96.753906 155.570312 99.109375 C 157.542969 101.679688 159.90625 103.910156 162.460938 105.9375 C 164.164062 107.289062 165.847656 108.671875 167.527344 110.058594 C 168.070312 110.503906 168.5 111.09375 169.207031 111.320312 C 169.332031 111.332031 169.457031 111.332031 169.582031 111.316406 Z M 78.769531 97.25 L 78.722656 97.210938 C 79.351562 96.773438 79.363281 96.769531 79.183594 96.300781 C 77.945312 93.128906 77.1875 89.804688 76.363281 86.519531 C 75.902344 84.699219 75.476562 82.867188 74.882812 81.09375 C 74.128906 78.871094 73.15625 76.738281 71.394531 75.109375 C 69.496094 73.359375 67.53125 71.683594 65.195312 70.519531 C 64.519531 70.179688 63.84375 69.832031 63.167969 69.488281 C 59.757812 67.785156 56.199219 66.5 52.488281 65.636719 C 49.9375 65.035156 47.378906 64.414062 44.769531 64.082031 C 43.777344 63.957031 42.847656 63.582031 41.863281 63.015625 C 42.289062 62.757812 42.582031 62.859375 42.871094 62.902344 C 44.820312 63.21875 46.769531 63.53125 48.71875 63.855469 C 49.511719 63.984375 50.3125 64.101562 51.097656 64.300781 C 53.351562 64.875 55.589844 65.503906 57.839844 66.082031 C 60.496094 66.765625 62.957031 67.957031 65.457031 69.066406 C 66.242188 69.417969 66.996094 69.828125 67.71875 70.296875 C 69.121094 71.203125 70.492188 72.160156 71.867188 73.109375 C 72.738281 73.730469 73.496094 74.46875 74.132812 75.332031 C 76.160156 78.011719 77.320312 81.089844 78.125 84.300781 C 78.578125 86.238281 78.871094 88.195312 79.003906 90.179688 C 79.273438 93.324219 79.945312 96.40625 81.601562 99.171875 C 81.957031 99.773438 82.292969 100.390625 82.328125 101.0625 C 81.972656 101.375 81.679688 101.230469 81.398438 101.144531 C 78.628906 100.292969 76.011719 99.101562 73.550781 97.566406 C 71.566406 96.347656 69.628906 95.054688 67.675781 93.789062 C 65.195312 92.1875 62.929688 90.320312 61.121094 87.972656 C 59.136719 85.410156 57.273438 82.757812 55.53125 80.015625 C 53.902344 77.445312 52.28125 74.871094 50.398438 72.480469 C 49.75 71.632812 49.039062 70.84375 48.261719 70.113281 C 46.011719 68.074219 43.789062 66 41.273438 64.277344 C 41.117188 64.171875 40.941406 64.027344 41.164062 63.789062 C 42.226562 63.894531 43.144531 64.5 44.144531 64.84375 C 45.207031 65.199219 46.234375 65.601562 47.261719 66.03125 C 48.238281 66.441406 49.28125 66.671875 50.207031 67.230469 C 51.132812 67.789062 52.199219 67.941406 53.125 68.492188 C 54.046875 69.046875 55.007812 69.46875 55.9375 69.980469 C 56.914062 70.515625 57.863281 71.101562 58.832031 71.644531 C 59.71875 72.140625 60.425781 72.984375 61.5 73.210938 C 61.617188 72.648438 61.25 72.472656 60.984375 72.296875 C 59.976562 71.617188 58.960938 70.949219 57.925781 70.316406 C 55.894531 69.070312 53.863281 67.839844 51.597656 67.0625 C 51.035156 66.871094 50.472656 66.632812 50.046875 66.226562 C 50.070312 66.113281 50.132812 66.023438 50.230469 65.960938 C 50.328125 65.898438 50.433594 65.882812 50.546875 65.914062 C 51.046875 65.992188 51.539062 66.097656 52.027344 66.230469 C 54.152344 66.867188 56.277344 67.515625 58.402344 68.175781 C 59.898438 68.660156 61.339844 69.277344 62.722656 70.023438 C 63.304688 70.328125 63.863281 70.691406 64.46875 70.941406 C 66.464844 71.777344 68.117188 73.105469 69.703125 74.527344 C 71.414062 76.058594 72.851562 77.824219 73.660156 80.023438 C 74.316406 81.730469 74.867188 83.472656 75.300781 85.25 C 75.390625 85.644531 75.453125 86.046875 75.5 86.449219 C 75.523438 86.632812 75.515625 86.84375 75.167969 86.917969 C 74.949219 86.539062 74.761719 86.140625 74.605469 85.730469 C 74.453125 85.246094 74.25 84.785156 73.988281 84.351562 C 73.066406 82.773438 72.128906 81.210938 71.25 79.613281 C 70.429688 78.128906 69.316406 76.898438 68.121094 75.722656 C 65.640625 73.289062 62.691406 71.515625 59.796875 69.648438 C 59.578125 69.523438 59.347656 69.433594 59.105469 69.375 C 59.042969 69.355469 58.914062 69.453125 58.878906 69.527344 C 58.839844 69.621094 58.847656 69.710938 58.90625 69.792969 C 59.132812 69.988281 59.375 70.167969 59.632812 70.328125 C 60.488281 70.863281 61.347656 71.394531 62.21875 71.910156 C 64.410156 73.210938 66.378906 74.796875 68.117188 76.664062 C 69.179688 77.796875 70.214844 78.984375 70.929688 80.417969 C 71.453125 81.460938 72.035156 82.46875 72.679688 83.441406 C 73.320312 84.363281 73.816406 85.355469 74.171875 86.417969 C 74.351562 86.953125 74.578125 87.453125 74.96875 87.765625 C 75.320312 87.945312 75.601562 87.480469 75.949219 87.910156 C 76.578125 91.03125 77.695312 94.132812 78.769531 97.25 Z M 158.304688 56.851562 C 158.429688 56.316406 158.871094 56.03125 159.210938 55.664062 C 159.972656 54.847656 160.808594 54.097656 161.480469 53.210938 C 163.53125 50.503906 165.667969 47.859375 167.464844 44.964844 C 168.714844 42.921875 170.207031 41.070312 171.933594 39.414062 C 173.296875 38.128906 174.671875 36.84375 176.332031 35.945312 C 177.75 35.179688 179.207031 34.453125 180.671875 33.765625 C 185.097656 31.683594 189.800781 30.789062 194.640625 30.675781 C 198.121094 30.59375 201.609375 30.742188 205.089844 30.804688 C 205.363281 30.804688 205.707031 30.738281 205.890625 31.054688 C 205.929688 31.277344 205.871094 31.464844 205.710938 31.625 C 204.777344 32.753906 203.867188 33.902344 202.894531 35.003906 C 201.488281 36.605469 200.226562 38.316406 199.113281 40.140625 C 197.613281 42.558594 195.855469 44.773438 193.839844 46.78125 C 193.042969 47.574219 192.085938 48.152344 191.246094 48.886719 C 188.859375 50.945312 186.273438 52.707031 183.484375 54.171875 C 181.566406 55.207031 179.601562 56.128906 177.445312 56.578125 C 175.613281 56.960938 173.800781 57.417969 171.933594 57.632812 C 171.078125 57.734375 170.226562 57.878906 169.386719 58.066406 C 166.199219 58.777344 162.976562 58.910156 159.738281 58.925781 C 159.480469 58.925781 159.230469 58.882812 159.167969 58.570312 C 159.382812 58.308594 159.691406 58.277344 159.984375 58.214844 C 164.171875 57.285156 168.011719 55.492188 171.738281 53.421875 C 173.113281 52.660156 174.363281 51.699219 175.699219 50.886719 C 177.546875 49.734375 179.304688 48.453125 180.964844 47.042969 C 183.292969 45.085938 185.53125 43.03125 187.804688 41.015625 C 188.558594 40.34375 189.257812 39.613281 190.0625 38.988281 C 191.542969 37.832031 193.164062 36.890625 194.703125 35.832031 C 196.300781 34.722656 198.046875 33.953125 199.941406 33.519531 C 200.875 33.308594 201.78125 32.976562 202.695312 32.675781 C 202.925781 32.597656 203.15625 32.441406 202.902344 32.085938 C 201.988281 32.304688 201.070312 32.5625 200.128906 32.734375 C 198.9375 32.976562 197.789062 33.355469 196.683594 33.871094 C 195.050781 34.589844 193.664062 35.707031 192.136719 36.601562 C 190.648438 37.484375 189.292969 38.535156 188.0625 39.757812 C 185.527344 42.238281 182.804688 44.511719 180.132812 46.839844 C 177.363281 49.226562 174.375 51.300781 171.171875 53.066406 C 169.015625 54.292969 166.78125 55.339844 164.457031 56.210938 C 164.207031 56.300781 163.910156 56.519531 163.601562 56.136719 C 163.777344 55.605469 164.25 55.285156 164.640625 54.917969 C 166.304688 53.355469 167.792969 51.632812 169.105469 49.761719 C 169.714844 48.886719 170.386719 48.0625 171.007812 47.195312 C 173.246094 44.078125 176.257812 41.839844 179.535156 40.003906 C 181.464844 38.890625 183.464844 37.925781 185.535156 37.101562 C 187.660156 36.289062 189.753906 35.402344 191.925781 34.714844 C 192.0625 34.671875 192.210938 34.601562 192.125 34.308594 C 191.5625 34.128906 190.992188 34.347656 190.445312 34.523438 C 189.4375 34.847656 188.445312 35.222656 187.460938 35.617188 C 184.980469 36.617188 182.5 37.605469 180.121094 38.882812 C 177.535156 40.28125 175.152344 41.972656 172.980469 43.964844 C 171.175781 45.613281 169.710938 47.570312 168.34375 49.578125 C 166.660156 52.015625 164.652344 54.140625 162.320312 55.960938 C 161.691406 56.488281 160.988281 56.875 160.210938 57.125 C 160.132812 57.125 160.054688 57.125 160.035156 57.125 C 160.058594 57.125 160.144531 57.125 160.230469 57.125 C 160.152344 56.761719 160.390625 56.5625 160.625 56.371094 C 161.605469 55.5625 162.5 54.667969 163.304688 53.683594 C 164.902344 51.71875 166.46875 49.730469 168.007812 47.71875 C 169.355469 45.9375 170.636719 44.117188 172.09375 42.425781 C 173.546875 40.734375 175.152344 39.167969 177.136719 38.09375 C 179.894531 36.601562 182.6875 35.210938 185.730469 34.332031 C 188.609375 33.496094 191.503906 32.84375 194.492188 32.605469 C 195.199219 32.550781 195.890625 32.402344 196.589844 32.292969 C 196.734375 32.265625 196.875 32.210938 196.871094 32.015625 C 196.800781 31.953125 196.738281 31.839844 196.667969 31.839844 C 194.894531 31.78125 193.132812 32.050781 191.382812 32.277344 C 189.890625 32.46875 188.421875 32.890625 186.957031 33.261719 C 182.90625 34.289062 179.097656 35.867188 175.636719 38.242188 C 175.304688 38.472656 174.976562 38.707031 174.660156 38.953125 C 172.574219 40.597656 170.859375 42.605469 169.308594 44.734375 C 167.308594 47.484375 165.253906 50.1875 163.117188 52.824219 C 161.785156 54.46875 160.339844 56.0625 158.261719 56.855469 C 158.1875 56.863281 158.117188 56.871094 158.046875 56.878906 Z M 72.316406 48.765625 C 72.070312 48.21875 72.398438 47.785156 72.609375 47.335938 C 73.539062 45.359375 74.28125 43.3125 74.839844 41.199219 C 75.332031 39.34375 75.707031 37.4375 76.464844 35.65625 C 76.976562 34.441406 77.421875 33.191406 77.996094 32.007812 C 78.90625 30.140625 79.867188 28.292969 80.867188 26.46875 C 81.945312 24.496094 83.492188 22.875 84.980469 21.214844 C 85.363281 20.808594 85.773438 20.433594 86.207031 20.078125 C 89.0625 17.679688 92.34375 15.988281 95.664062 14.367188 C 96.707031 13.859375 97.839844 13.550781 98.902344 13.082031 C 99.695312 12.738281 100.511719 12.480469 101.355469 12.308594 C 105.175781 11.484375 109.039062 11.105469 112.945312 11.160156 C 113.019531 11.160156 113.089844 11.273438 113.226562 11.386719 C 112.992188 11.886719 112.574219 12.222656 112.148438 12.566406 C 111.273438 13.265625 110.433594 14.027344 109.867188 14.992188 C 109.148438 16.214844 108.511719 17.484375 107.957031 18.792969 C 106.796875 21.550781 105.71875 24.339844 104.605469 27.117188 C 104.074219 28.4375 103.683594 29.835938 102.976562 31.046875 C 101.679688 33.277344 100.433594 35.558594 98.726562 37.519531 C 98.324219 37.976562 97.960938 38.464844 97.5625 38.925781 C 96.003906 40.726562 94.339844 42.425781 92.570312 44.023438 C 91.210938 45.257812 89.621094 46.15625 88.09375 47.148438 C 85.4375 48.875 82.511719 49.996094 79.550781 51.035156 C 79.164062 51.160156 78.773438 51.25 78.371094 51.308594 C 78.210938 51.335938 77.964844 51.449219 77.890625 51.054688 C 78.953125 50.523438 80.015625 49.976562 81.097656 49.429688 C 83.398438 48.257812 85.738281 47.167969 87.851562 45.664062 C 89.335938 44.605469 90.820312 43.550781 92.128906 42.269531 C 93.25 41.171875 94.351562 40.050781 95.449219 38.929688 C 96.582031 37.769531 97.738281 36.617188 98.570312 35.210938 C 100.460938 32.019531 102.046875 28.683594 103.144531 25.121094 C 103.660156 23.355469 104.410156 21.695312 105.394531 20.140625 C 106.066406 19.125 106.757812 18.125 107.429688 17.117188 C 107.535156 16.957031 107.632812 16.761719 107.363281 16.636719 C 107.269531 16.679688 107.144531 16.695312 107.09375 16.761719 C 106.238281 17.894531 105.394531 19.035156 104.546875 20.179688 C 104.105469 20.800781 103.761719 21.476562 103.519531 22.207031 C 102.808594 24.207031 102.121094 26.222656 101.359375 28.207031 C 100.863281 29.539062 100.292969 30.835938 99.648438 32.101562 C 98.6875 33.945312 97.617188 35.722656 96.171875 37.25 C 95.617188 37.835938 95.109375 38.46875 94.507812 39.011719 C 93.828125 39.621094 93.1875 40.269531 92.585938 40.953125 C 92.109375 41.480469 91.601562 41.96875 91.054688 42.425781 C 88.398438 44.726562 85.484375 46.621094 82.308594 48.117188 C 81.5 48.496094 80.761719 49.035156 79.855469 49.269531 C 79.816406 48.738281 80.246094 48.660156 80.507812 48.5 C 82.480469 47.265625 84.351562 45.890625 86.121094 44.378906 C 87.792969 42.976562 89.417969 41.53125 90.828125 39.863281 C 91.871094 38.617188 93.097656 37.550781 94.0625 36.242188 C 95.171875 34.722656 96.097656 33.089844 97.101562 31.507812 C 97.515625 30.867188 97.847656 30.183594 98.089844 29.457031 C 98.347656 28.742188 98.664062 28.054688 99.046875 27.394531 C 100.132812 25.390625 101.152344 23.34375 102.5625 21.527344 C 102.621094 21.445312 102.671875 21.355469 102.707031 21.261719 C 102.746094 21.191406 102.753906 21.117188 102.734375 21.039062 C 102.714844 20.960938 102.667969 20.902344 102.597656 20.863281 C 102.3125 20.847656 102.164062 21.054688 102.015625 21.253906 C 100.773438 22.875 99.78125 24.632812 98.847656 26.4375 C 98.148438 27.785156 97.605469 29.226562 96.886719 30.546875 C 95.597656 32.894531 94.214844 35.210938 92.3125 37.148438 C 91.765625 37.675781 91.246094 38.226562 90.753906 38.808594 C 88.550781 41.566406 85.84375 43.769531 83.078125 45.90625 C 82 46.738281 80.972656 47.652344 79.773438 48.316406 C 79.488281 48.464844 79.257812 48.671875 79.085938 48.945312 C 78.917969 49.21875 78.828125 49.515625 78.820312 49.839844 C 77.679688 50.46875 76.492188 50.980469 75.253906 51.375 C 74.25 51.679688 73.21875 51.972656 72.285156 52.507812 C 71.972656 52.683594 71.910156 52.640625 71.402344 52.382812 C 71.503906 52.273438 71.621094 52.175781 71.746094 52.089844 C 72.007812 51.945312 72.28125 51.816406 72.5625 51.699219 C 75.285156 50.558594 77.726562 48.933594 80.125 47.234375 C 82.03125 45.882812 83.636719 44.183594 85.355469 42.613281 C 86.238281 41.777344 87.054688 40.875 87.796875 39.90625 C 89.253906 38.085938 90.589844 36.175781 91.804688 34.179688 C 91.921875 33.953125 92.054688 33.738281 92.207031 33.535156 C 93.449219 32.113281 94.292969 30.425781 95.246094 28.808594 C 97.207031 25.496094 99.117188 22.152344 101.761719 19.289062 C 103.808594 17.070312 105.976562 15.070312 108.75 13.808594 C 109.210938 13.601562 109.652344 13.351562 110.089844 13.097656 C 110.246094 13.011719 110.445312 12.894531 110.222656 12.554688 C 108.371094 13.320312 106.570312 14.183594 104.957031 15.429688 C 103.359375 16.679688 101.90625 18.082031 100.601562 19.636719 C 99.261719 21.222656 97.984375 22.855469 96.941406 24.671875 C 95.558594 27.089844 94.128906 29.492188 92.605469 31.824219 C 91.023438 34.238281 89.292969 36.554688 87.644531 38.925781 C 86.941406 39.988281 86.117188 40.945312 85.167969 41.792969 C 84.460938 42.371094 83.789062 42.988281 83.148438 43.636719 C 81.460938 45.417969 79.507812 46.855469 77.464844 48.175781 C 76.996094 48.476562 76.5 48.726562 76.015625 49.003906 C 75.910156 49.0625 75.824219 49.046875 75.726562 48.894531 C 76.199219 48.261719 76.839844 47.769531 77.460938 47.273438 C 80.238281 45.042969 82.621094 42.421875 84.972656 39.765625 C 86.484375 38.054688 87.648438 36.078125 89.046875 34.273438 C 89.691406 33.429688 90.34375 32.585938 90.789062 31.605469 C 91.378906 30.3125 92.042969 29.054688 92.585938 27.742188 C 93.726562 24.996094 95.4375 22.609375 97.15625 20.226562 C 97.277344 20.0625 97.410156 19.90625 97.550781 19.761719 C 98.792969 18.425781 100.117188 17.171875 101.757812 16.316406 C 102.066406 16.144531 102.363281 15.949219 102.644531 15.738281 C 102.714844 15.703125 102.765625 15.648438 102.789062 15.574219 C 102.816406 15.5 102.8125 15.425781 102.777344 15.355469 C 102.679688 15.199219 102.550781 15.160156 102.386719 15.234375 C 100.5625 16.242188 98.828125 17.378906 97.480469 19.011719 C 96.675781 19.988281 95.941406 21.019531 95.128906 21.992188 C 94.734375 22.457031 94.386719 22.949219 94.078125 23.476562 C 92.984375 25.367188 91.992188 27.308594 91.101562 29.304688 C 90.460938 30.746094 89.769531 32.179688 88.800781 33.414062 C 86.644531 36.164062 84.875 39.210938 82.390625 41.707031 C 81.320312 42.785156 80.230469 43.839844 79.121094 44.875 C 78.980469 45.003906 78.8125 45.160156 78.589844 44.96875 C 78.492188 44.695312 78.660156 44.476562 78.746094 44.246094 C 79.25 42.917969 79.800781 41.605469 80.261719 40.265625 C 80.914062 38.351562 81.273438 36.339844 82.277344 34.550781 C 82.347656 34.414062 82.398438 34.269531 82.433594 34.121094 C 82.738281 33.042969 83.230469 32.042969 83.703125 31.027344 C 84.609375 29.039062 85.707031 27.160156 86.992188 25.394531 C 88.636719 23.167969 90.5625 21.253906 92.921875 19.796875 C 93.148438 19.65625 93.53125 19.617188 93.480469 19.199219 C 93.339844 19.089844 93.195312 19.089844 93.054688 19.199219 C 91.859375 19.765625 90.769531 20.496094 89.789062 21.390625 C 88.246094 22.863281 86.863281 24.476562 85.640625 26.226562 C 84.460938 27.867188 83.585938 29.710938 82.722656 31.546875 C 82.03125 33.019531 81.511719 34.554688 80.9375 36.066406 C 80.339844 37.628906 79.851562 39.230469 79.34375 40.828125 C 78.632812 43.074219 77.640625 45.167969 76.105469 46.96875 C 75.945312 47.160156 75.796875 47.359375 75.664062 47.570312 C 74.980469 48.652344 74.050781 49.503906 73.019531 50.238281 C 72.839844 50.363281 72.621094 50.5625 72.355469 50.285156 C 72.40625 50.148438 72.472656 50.015625 72.550781 49.890625 C 74.070312 47.914062 75.238281 45.742188 76.269531 43.460938 C 77.183594 41.371094 77.980469 39.234375 78.664062 37.058594 C 79.121094 35.664062 79.46875 34.214844 80.070312 32.882812 C 81.585938 29.503906 83.308594 26.238281 85.746094 23.382812 C 87.710938 21.082031 90.03125 19.230469 92.707031 17.828125 C 95.882812 16.160156 99.171875 14.695312 102.726562 13.976562 C 103.863281 13.746094 104.945312 13.277344 106.117188 13.203125 C 106.316406 13.191406 106.535156 13.082031 106.515625 12.832031 C 106.496094 12.578125 106.277344 12.515625 106.070312 12.558594 C 105.421875 12.675781 104.785156 12.828125 104.15625 13.019531 C 103.578125 13.21875 102.984375 13.316406 102.394531 13.457031 C 100.625 13.878906 98.84375 14.242188 97.1875 15.046875 C 96.140625 15.558594 95.0625 16.003906 94 16.472656 C 91.695312 17.464844 89.664062 18.851562 87.761719 20.464844 C 85.976562 21.980469 84.503906 23.765625 83.15625 25.675781 C 82.519531 26.589844 81.945312 27.539062 81.425781 28.523438 C 80.308594 30.625 79.199219 32.71875 78.542969 35.042969 C 77.996094 37.035156 77.429688 39.046875 76.578125 40.945312 C 75.785156 42.695312 75.203125 44.535156 74.140625 46.175781 C 73.5625 47.066406 73.078125 48.011719 72.28125 48.730469 C 72.25 48.820312 72.207031 48.902344 72.144531 48.972656 C 72.097656 49.011719 71.996094 48.984375 71.917969 48.984375 C 71.960938 48.910156 71.988281 48.804688 72.050781 48.769531 C 72.117188 48.734375 72.226562 48.765625 72.316406 48.765625 Z M 126.382812 40.480469 C 126.460938 40.28125 126.550781 40.089844 126.652344 39.90625 C 128.246094 37.609375 129.605469 35.171875 130.980469 32.746094 C 131.582031 31.6875 132.242188 30.664062 132.960938 29.679688 C 134.332031 27.796875 135.644531 25.871094 137.289062 24.199219 C 138.5625 22.894531 139.734375 21.496094 141.21875 20.417969 C 141.832031 19.96875 142.433594 19.507812 143.019531 19.027344 C 145.035156 17.375 147.300781 16.113281 149.644531 15.0625 C 152.519531 13.777344 155.613281 13.125 158.722656 12.71875 C 162.441406 12.230469 166.121094 11.617188 169.71875 10.539062 C 170.105469 10.421875 170.492188 10.3125 170.886719 10.226562 C 171.121094 10.171875 171.390625 10.09375 171.550781 10.484375 C 171.152344 11.082031 170.675781 11.679688 170.324219 12.34375 C 169.304688 14.265625 168.351562 16.226562 167.335938 18.15625 C 166.34375 20.050781 165.796875 22.125 164.941406 24.078125 C 164.074219 26.03125 163.007812 27.871094 161.738281 29.589844 C 159.03125 33.28125 155.402344 35.804688 151.285156 37.675781 C 148.882812 38.765625 146.378906 39.558594 143.847656 40.261719 C 142.046875 40.757812 140.226562 41.199219 138.414062 41.652344 C 135.949219 42.269531 133.421875 42.429688 130.910156 42.71875 C 129.203125 42.910156 127.488281 43.058594 125.773438 43.210938 C 125.5 43.230469 125.171875 43.359375 124.976562 43.011719 C 125.488281 42.496094 125.507812 42.429688 125.777344 42.457031 C 126.511719 42.542969 127.160156 42.246094 127.839844 42.0625 C 128.277344 41.945312 128.722656 41.867188 129.175781 41.78125 C 130.167969 41.59375 131.160156 41.402344 132.15625 41.21875 C 133.300781 41.011719 134.441406 40.78125 135.589844 40.621094 C 137.242188 40.386719 138.890625 40.125 140.496094 39.652344 C 142.046875 39.191406 143.582031 38.679688 145.125 38.195312 C 148.375 37.171875 151.46875 35.824219 154.128906 33.625 C 154.289062 33.5 154.457031 33.390625 154.632812 33.289062 C 158.316406 31.066406 160.804688 27.761719 162.714844 24.011719 C 163.703125 22.0625 164.78125 20.171875 165.828125 18.261719 C 166.464844 17.113281 167.023438 15.90625 168.011719 14.984375 C 168.039062 14.945312 168.0625 14.902344 168.082031 14.851562 C 168.128906 14.785156 168.140625 14.714844 168.121094 14.636719 C 168.101562 14.558594 168.054688 14.5 167.980469 14.464844 C 167.886719 14.425781 167.796875 14.433594 167.710938 14.488281 C 166.714844 15.308594 166.023438 16.382812 165.445312 17.511719 C 164.953125 18.460938 164.410156 19.371094 163.875 20.292969 C 163.363281 21.167969 162.8125 22.027344 162.390625 22.945312 C 161.71875 24.371094 160.933594 25.730469 160.035156 27.023438 C 158.925781 28.675781 157.667969 30.191406 156.054688 31.375 C 154.628906 32.421875 153.195312 33.464844 151.746094 34.484375 C 151.242188 34.824219 150.71875 35.121094 150.167969 35.382812 C 146.949219 37 143.546875 38.15625 140.085938 39.109375 C 138.527344 39.558594 136.9375 39.847656 135.320312 39.972656 C 134.050781 40.054688 132.8125 40.289062 131.601562 40.675781 C 131.117188 40.820312 130.625 40.929688 130.125 41.003906 C 130 41.039062 129.875 41.035156 129.753906 40.988281 C 129.632812 40.941406 129.535156 40.859375 129.46875 40.746094 C 129.605469 40.375 129.957031 40.246094 130.261719 40.09375 C 130.945312 39.757812 131.636719 39.449219 132.332031 39.140625 C 135.671875 37.679688 138.914062 36.019531 142.050781 34.160156 C 146.757812 31.34375 151.039062 27.933594 155.007812 24.152344 C 156.101562 23.101562 157.097656 21.941406 158.230469 20.9375 C 159.191406 20.109375 160.097656 19.230469 160.953125 18.292969 C 162.117188 17.015625 163.378906 15.851562 164.75 14.800781 C 165.625 14.113281 166.519531 13.457031 167.40625 12.785156 C 167.558594 12.671875 167.726562 12.546875 167.558594 12.296875 C 167.414062 12.304688 167.277344 12.332031 167.140625 12.386719 C 165.320312 13.496094 163.640625 14.789062 162.097656 16.265625 C 160.339844 17.9375 158.808594 19.84375 156.855469 21.316406 C 156.664062 21.480469 156.488281 21.660156 156.324219 21.851562 C 155.007812 23.183594 153.769531 24.609375 152.355469 25.832031 C 149.328125 28.441406 146.207031 30.933594 142.769531 32.996094 C 139.566406 34.9375 136.257812 36.6875 132.851562 38.238281 C 132.632812 38.335938 132.417969 38.492188 132.164062 38.320312 C 132.210938 38.230469 132.230469 38.097656 132.300781 38.058594 C 133.410156 37.4375 134.328125 36.558594 135.347656 35.8125 C 137.425781 34.285156 139.484375 32.722656 141.371094 30.96875 C 144.039062 28.476562 146.738281 26.03125 149.277344 23.402344 C 152.058594 20.527344 155.296875 18.308594 159.132812 17.054688 C 159.320312 16.996094 159.515625 16.917969 159.445312 16.648438 C 158.695312 16.550781 158.695312 16.546875 158.164062 16.722656 C 155.375 17.632812 153.015625 19.3125 150.75 21.09375 C 149.402344 22.148438 148.222656 23.421875 147.003906 24.636719 C 145.066406 26.566406 143.132812 28.5 141.074219 30.300781 C 140.121094 31.128906 139.214844 32.019531 138.175781 32.730469 C 135.925781 34.277344 134.015625 36.289062 131.625 37.640625 C 131.367188 37.800781 131.125 37.980469 130.890625 38.175781 C 130.449219 38.515625 130.019531 38.871094 129.574219 39.195312 C 129.429688 39.300781 129.238281 39.441406 129.054688 39.136719 C 129.140625 38.96875 129.238281 38.808594 129.351562 38.652344 C 131.6875 35.90625 133.710938 32.929688 135.613281 29.875 C 137.59375 26.707031 140.035156 23.953125 142.941406 21.613281 C 144.796875 20.109375 146.796875 18.839844 148.945312 17.800781 C 151.476562 16.566406 154.160156 15.898438 156.855469 15.230469 C 158.375 14.851562 159.90625 14.519531 161.433594 14.164062 C 161.644531 14.113281 161.785156 13.996094 161.71875 13.742188 C 161.480469 13.597656 161.234375 13.660156 160.988281 13.707031 C 159.550781 13.988281 158.097656 14.21875 156.675781 14.566406 C 154.960938 14.984375 153.214844 15.277344 151.550781 15.914062 C 148.070312 17.242188 144.855469 18.984375 142.042969 21.472656 C 140.902344 22.480469 139.863281 23.585938 138.738281 24.601562 C 138.257812 25.054688 137.824219 25.546875 137.429688 26.078125 C 135.714844 28.285156 134.308594 30.703125 132.726562 32.992188 C 131.113281 35.332031 129.449219 37.617188 127.46875 39.667969 C 127.199219 39.972656 126.972656 40.320312 126.382812 40.480469 Z M 212.425781 78.660156 C 211.871094 78.765625 211.539062 78.863281 211.183594 78.890625 C 209.269531 79.050781 207.359375 79.222656 205.441406 79.335938 C 203.828125 79.429688 202.210938 79.480469 200.59375 79.511719 C 198.367188 79.550781 196.167969 79.292969 193.953125 78.980469 C 188.613281 78.214844 183.699219 76.300781 179.09375 73.539062 C 176.824219 72.179688 174.699219 70.632812 172.589844 69.058594 C 169.503906 66.746094 166.300781 64.621094 163.027344 62.601562 C 162.335938 62.179688 161.65625 61.746094 160.886719 61.472656 C 160.507812 61.316406 160.152344 61.128906 159.808594 60.910156 C 159.488281 60.730469 159.046875 60.730469 158.792969 60.386719 C 158.894531 60.308594 158.9375 60.25 158.96875 60.25 C 161.554688 60.628906 163.976562 61.5625 166.222656 62.820312 C 169.269531 64.527344 172.101562 66.589844 174.832031 68.769531 C 177.589844 70.929688 180.546875 72.765625 183.703125 74.28125 C 186.628906 75.71875 189.691406 76.703125 192.84375 77.484375 C 194.816406 77.964844 196.820312 78.226562 198.816406 78.519531 C 200.171875 78.703125 201.53125 78.730469 202.890625 78.605469 C 203.078125 78.589844 203.304688 78.546875 203.277344 78.222656 C 202.996094 77.867188 202.570312 78 202.191406 77.96875 C 201.238281 77.878906 200.277344 78.007812 199.324219 77.828125 C 198.332031 77.640625 197.328125 77.488281 196.328125 77.371094 C 194.410156 77.152344 192.542969 76.6875 190.695312 76.175781 C 187.859375 75.378906 185.140625 74.296875 182.535156 72.921875 C 180.5625 71.890625 178.566406 70.882812 176.839844 69.453125 C 175.472656 68.316406 174.007812 67.332031 172.53125 66.34375 C 172.234375 66.152344 171.949219 65.945312 171.675781 65.71875 C 170.050781 64.324219 168.175781 63.316406 166.398438 62.160156 C 166.089844 61.984375 165.769531 61.835938 165.433594 61.722656 C 164.070312 61.179688 162.707031 60.65625 161.347656 60.101562 C 161.273438 60.074219 161.242188 59.945312 161.171875 59.832031 C 161.535156 59.582031 162 59.550781 162.28125 59.773438 C 162.765625 60.160156 163.316406 60.128906 163.851562 60.242188 C 166.859375 60.882812 169.890625 61.488281 172.707031 62.84375 C 173.703125 63.324219 174.753906 63.695312 175.761719 64.15625 C 177.742188 65.058594 179.757812 65.882812 181.59375 67.074219 C 182.359375 67.566406 183.164062 68.003906 183.960938 68.441406 C 184.160156 68.550781 184.417969 68.703125 184.621094 68.417969 C 184.632812 68.1875 184.53125 68.019531 184.324219 67.917969 C 182.882812 67.078125 181.464844 66.1875 179.984375 65.425781 C 177.691406 64.246094 175.335938 63.195312 172.964844 62.179688 C 170.90625 61.289062 168.828125 60.570312 166.625 60.179688 C 166.378906 60.136719 166.136719 60.070312 165.902344 59.980469 C 165.753906 59.921875 165.726562 59.761719 165.792969 59.507812 C 166.265625 59.269531 166.832031 59.328125 167.355469 59.433594 C 169.097656 59.75 170.847656 60.050781 172.535156 60.597656 C 175.042969 61.410156 177.414062 62.554688 179.738281 63.78125 C 182.019531 64.988281 184.277344 66.234375 186.40625 67.710938 C 188.402344 69.09375 190.4375 70.417969 192.46875 71.75 C 193.101562 72.167969 193.773438 72.523438 194.417969 72.914062 C 196.375 74.09375 198.488281 74.949219 200.558594 75.890625 C 202.542969 76.789062 204.542969 77.640625 206.691406 78.066406 C 207.089844 78.144531 207.476562 78.289062 207.886719 78.203125 C 208.078125 78.164062 208.296875 78.132812 208.242188 77.796875 C 207.0625 77.441406 205.855469 77.085938 204.664062 76.683594 C 203.132812 76.160156 201.671875 75.460938 200.175781 74.839844 C 196.332031 73.234375 192.707031 71.234375 189.300781 68.832031 C 185.738281 66.3125 181.992188 64.105469 178.066406 62.214844 C 175.785156 61.128906 173.503906 60.023438 171 59.5 C 170.585938 59.414062 170.117188 59.367188 169.75 58.953125 C 170.824219 58.546875 171.855469 58.355469 172.917969 58.609375 C 174.539062 58.996094 176.195312 59.261719 177.738281 59.925781 C 178.480469 60.246094 179.214844 60.589844 179.949219 60.929688 C 181.839844 61.785156 183.664062 62.765625 185.421875 63.878906 C 188.132812 65.644531 190.675781 67.664062 193.425781 69.382812 C 194.804688 70.238281 196.113281 71.1875 197.359375 72.230469 C 197.617188 72.445312 197.890625 72.730469 198.289062 72.550781 C 198.363281 72.472656 198.402344 72.378906 198.402344 72.269531 C 198.402344 72.164062 198.363281 72.070312 198.289062 71.992188 C 198.035156 71.742188 197.757812 71.527344 197.457031 71.339844 C 195.578125 70.144531 193.8125 68.777344 191.941406 67.570312 C 189.015625 65.675781 186.351562 63.398438 183.203125 61.820312 C 181.304688 60.867188 179.480469 59.773438 177.464844 59.082031 C 176.796875 58.851562 176.113281 58.683594 175.4375 58.476562 C 175.246094 58.417969 175.050781 58.332031 175.113281 57.960938 C 176.328125 57.476562 177.667969 57.292969 178.925781 57 C 179.34375 57.21875 179.589844 57.535156 179.988281 57.691406 C 180.839844 58.015625 181.660156 58.402344 182.480469 58.800781 C 184.546875 59.777344 186.460938 60.988281 188.226562 62.441406 C 189.8125 63.707031 191.324219 65.054688 192.761719 66.484375 C 192.953125 66.679688 193.132812 67.007812 193.507812 66.75 C 193.644531 66.308594 193.28125 66.09375 193.058594 65.859375 C 190.445312 63.15625 187.609375 60.734375 184.277344 58.9375 C 183.113281 58.3125 181.894531 57.828125 180.710938 57.261719 C 180.449219 57.136719 180.121094 57.082031 180.058594 56.632812 C 180.457031 56.242188 180.976562 55.996094 181.535156 56.125 C 182.316406 56.304688 183.128906 56.375 183.863281 56.765625 C 185.425781 57.601562 186.996094 58.417969 188.410156 59.496094 C 190.347656 60.976562 192.195312 62.542969 193.789062 64.398438 C 195.105469 65.933594 196.539062 67.378906 197.78125 68.972656 C 199.21875 70.8125 200.765625 72.554688 202.25 74.347656 C 202.488281 74.609375 202.742188 74.859375 203.011719 75.085938 C 203.203125 75.265625 203.453125 75.402344 203.675781 75.203125 C 203.929688 74.96875 203.746094 74.75 203.558594 74.5625 C 203.523438 74.53125 203.484375 74.496094 203.445312 74.464844 C 202.476562 73.707031 201.761719 72.714844 200.992188 71.777344 C 198.675781 68.957031 196.394531 66.105469 193.9375 63.417969 C 190.964844 60.152344 187.542969 57.523438 183.445312 55.832031 C 183.265625 55.757812 183.0625 55.6875 183.0625 55.425781 C 183.105469 55.34375 183.128906 55.226562 183.199219 55.179688 C 183.320312 55.085938 183.460938 55.035156 183.613281 55.019531 C 183.8125 55.039062 184.007812 55.085938 184.199219 55.15625 C 186.796875 55.824219 189.058594 57.15625 191.109375 58.839844 C 193.214844 60.589844 195.167969 62.5 196.964844 64.570312 C 199.582031 67.53125 202.210938 70.484375 204.816406 73.460938 C 205.625 74.382812 206.46875 75.261719 207.496094 75.917969 C 208.546875 76.625 209.660156 77.21875 210.832031 77.699219 C 211.328125 77.890625 211.894531 77.988281 212.425781 78.660156 Z M 196.382812 62.789062 C 195.363281 61.683594 194.292969 60.632812 193.164062 59.640625 C 192.917969 59.429688 192.597656 59.175781 192.773438 58.734375 C 193.214844 58.457031 193.71875 58.421875 194.21875 58.359375 C 196.632812 58.070312 199.054688 57.984375 201.480469 58.09375 C 203.101562 58.132812 204.707031 58.289062 206.304688 58.558594 C 208.609375 58.976562 210.800781 59.757812 212.972656 60.570312 C 216.09375 61.734375 219.167969 63.027344 222.214844 64.394531 C 223.933594 65.167969 225.726562 65.660156 227.496094 66.261719 C 228.023438 66.4375 228.558594 66.582031 229.105469 66.703125 C 229.292969 66.742188 229.503906 66.703125 229.550781 66.273438 C 228.707031 65.960938 227.816406 65.652344 226.914062 65.367188 C 225.507812 64.953125 224.125 64.464844 222.769531 63.902344 C 220.308594 62.835938 217.84375 61.78125 215.363281 60.769531 C 214.050781 60.238281 212.671875 59.882812 211.375 59.320312 C 208.988281 58.269531 206.492188 57.699219 203.890625 57.601562 C 203.132812 57.574219 202.375 57.5625 201.621094 57.507812 C 198.992188 57.332031 196.371094 57.410156 193.757812 57.738281 C 193.007812 57.828125 192.25 57.878906 191.492188 57.890625 C 191.03125 57.890625 190.632812 57.714844 190.488281 57.132812 C 190.992188 56.777344 191.550781 56.710938 192.082031 56.558594 C 193.355469 56.1875 194.683594 56.183594 195.976562 55.960938 C 197.480469 55.703125 198.988281 55.667969 200.507812 55.589844 C 202.328125 55.492188 204.144531 55.679688 205.953125 55.839844 C 208.695312 56.082031 211.3125 56.890625 213.851562 57.902344 C 215.773438 58.667969 217.628906 59.605469 219.492188 60.519531 C 222.210938 61.882812 225.003906 63.0625 227.871094 64.066406 C 231.046875 65.148438 234.246094 66.042969 237.632812 66.023438 C 237.835938 66.007812 238.035156 66.015625 238.234375 66.042969 C 238.433594 66.105469 238.621094 66.183594 238.804688 66.277344 C 238.710938 66.453125 238.675781 66.640625 238.570312 66.714844 C 237.136719 67.664062 235.738281 68.679688 234.1875 69.425781 C 232.242188 70.367188 230.261719 71.296875 228.246094 72.109375 C 226.652344 72.757812 225.023438 73.296875 223.359375 73.726562 C 219.351562 74.734375 215.28125 75.035156 211.171875 74.839844 C 209.800781 74.785156 208.460938 74.546875 207.152344 74.128906 C 206.566406 73.9375 206.039062 73.671875 205.816406 73.035156 C 205.933594 72.957031 206.015625 72.855469 206.09375 72.855469 C 206.496094 72.855469 206.898438 72.882812 207.296875 72.929688 C 208.152344 73.023438 209 73.171875 209.855469 73.242188 C 212.480469 73.449219 215.105469 73.285156 217.730469 73.210938 C 218.789062 73.167969 219.84375 73.058594 220.890625 72.878906 C 223.136719 72.523438 225.320312 71.871094 227.515625 71.320312 C 228.328125 71.117188 229.121094 70.855469 229.894531 70.542969 C 229.8125 70.183594 229.59375 70.140625 229.402344 70.183594 C 228.808594 70.300781 228.214844 70.433594 227.632812 70.589844 C 225.480469 71.167969 223.335938 71.761719 221.144531 72.140625 C 219.796875 72.375 218.460938 72.652344 217.085938 72.632812 C 215.46875 72.617188 213.855469 72.632812 212.238281 72.632812 C 209.757812 72.632812 207.308594 72.277344 204.875 71.800781 C 204.101562 71.644531 203.742188 71.121094 203.46875 70.511719 C 203.628906 70.285156 203.839844 70.214844 204.105469 70.296875 C 206.460938 70.90625 208.886719 71.09375 211.285156 71.453125 C 212.535156 71.640625 213.792969 71.777344 215.058594 71.542969 C 215.289062 71.503906 215.578125 71.503906 215.632812 71.15625 C 215.40625 70.761719 215.035156 70.886719 214.703125 70.921875 C 213.847656 71.011719 213 71.160156 212.136719 71.007812 C 209.453125 70.542969 206.761719 70.089844 204.082031 69.605469 C 203.488281 69.496094 202.910156 69.335938 202.328125 69.453125 C 201.832031 68.96875 201.265625 68.621094 201.238281 67.910156 C 201.507812 67.765625 201.78125 67.757812 202.058594 67.890625 C 203.121094 68.277344 204.207031 68.433594 205.3125 68.578125 C 206.113281 68.6875 206.90625 68.832031 207.703125 68.980469 C 210.144531 69.421875 212.609375 69.644531 215.089844 69.644531 C 218.167969 69.660156 221.253906 69.679688 224.328125 69.351562 C 225.734375 69.199219 227.132812 68.964844 228.542969 68.863281 C 230.519531 68.71875 232.378906 67.972656 234.339844 67.796875 C 234.492188 67.761719 234.625 67.695312 234.742188 67.59375 C 234.890625 67.484375 235.113281 67.371094 234.90625 67.121094 C 234.65625 66.980469 234.417969 67.113281 234.179688 67.144531 C 232.136719 67.429688 230.183594 68.191406 228.09375 68.257812 C 227.292969 68.28125 226.5 68.527344 225.695312 68.582031 C 223.679688 68.722656 221.660156 68.863281 219.644531 68.910156 C 215.800781 69 211.953125 69 208.160156 68.253906 C 206.179688 67.863281 204.15625 67.765625 202.207031 67.15625 C 199.808594 66.402344 199.132812 66.0625 197.636719 64.191406 C 197.460938 64.011719 197.410156 63.800781 197.480469 63.558594 C 198.824219 63.113281 200.160156 64.003906 201.5 63.84375 C 201.546875 63.570312 201.488281 63.414062 201.347656 63.359375 C 199.816406 62.789062 198.203125 62.828125 196.382812 62.789062 Z M 78.1875 52.328125 C 78.695312 51.960938 79.265625 51.726562 79.78125 51.9375 C 81.097656 52.46875 82.515625 52.632812 83.835938 53.164062 C 86.007812 54.035156 88.035156 55.160156 90.066406 56.300781 C 92.484375 57.65625 94.507812 59.476562 96.464844 61.386719 C 98.097656 62.976562 99.59375 64.703125 101.222656 66.300781 C 103.183594 68.222656 105.457031 69.742188 107.785156 71.183594 C 109.824219 72.449219 112.035156 73.320312 114.28125 74.078125 C 115.4375 74.464844 116.640625 74.621094 117.84375 74.789062 C 118.347656 74.863281 118.785156 74.367188 119.304688 74.710938 C 119.726562 74.988281 120.1875 75.207031 120.632812 75.441406 C 121.125 75.699219 121.574219 76.042969 122.132812 76.152344 C 122.308594 76.199219 122.4375 76.136719 122.515625 75.976562 C 122.605469 75.8125 122.574219 75.679688 122.417969 75.578125 C 122.253906 75.46875 122.0625 75.402344 121.886719 75.292969 C 120.929688 74.722656 119.960938 74.175781 119.027344 73.570312 C 116.601562 72 114.339844 70.203125 112.121094 68.359375 C 110.484375 67 108.84375 65.648438 107.253906 64.238281 C 105.929688 63.0625 104.660156 61.820312 103.398438 60.574219 C 101.589844 58.785156 99.523438 57.328125 97.425781 55.910156 C 95.097656 54.371094 92.65625 53.042969 90.097656 51.925781 C 89.214844 51.53125 88.34375 51.148438 87.480469 50.71875 C 87.25 50.605469 86.894531 50.484375 87.019531 50.035156 C 87.15625 50.011719 87.292969 50.003906 87.429688 50.011719 C 89.3125 50.367188 91.1875 50.738281 93.007812 51.417969 C 95.800781 52.46875 98.605469 53.460938 101.269531 54.824219 C 104.425781 56.4375 106.867188 58.789062 108.742188 61.761719 C 110.160156 63.988281 111.773438 66.058594 113.328125 68.175781 C 113.582031 68.570312 113.921875 68.867188 114.347656 69.066406 C 114.449219 69.097656 114.542969 69.085938 114.632812 69.03125 C 114.703125 68.996094 114.746094 68.9375 114.765625 68.859375 C 114.78125 68.78125 114.769531 68.710938 114.722656 68.648438 C 114.367188 68.222656 113.953125 67.835938 113.613281 67.402344 C 112.070312 65.386719 110.617188 63.324219 109.238281 61.1875 C 107.242188 58.113281 104.671875 55.65625 101.351562 54.03125 C 99.078125 52.914062 96.714844 52.027344 94.34375 51.148438 C 92.105469 50.320312 89.855469 49.585938 87.480469 49.308594 C 87.230469 49.28125 86.972656 49.21875 86.855469 48.914062 C 87.003906 48.507812 87.363281 48.351562 87.753906 48.226562 C 88.1875 48.363281 88.613281 48.515625 89.050781 48.632812 C 91 49.167969 92.960938 49.671875 94.914062 50.203125 C 95.550781 50.363281 96.175781 50.5625 96.789062 50.796875 C 99.835938 52.042969 102.859375 53.316406 105.605469 55.179688 C 108.074219 56.820312 110.1875 58.835938 111.949219 61.226562 C 113.59375 63.554688 114.945312 66.046875 115.996094 68.699219 C 116.421875 69.746094 117.171875 70.585938 117.816406 71.492188 C 117.929688 71.59375 118.0625 71.628906 118.210938 71.59375 C 118.441406 71.511719 118.464844 71.292969 118.359375 71.09375 C 118.238281 70.871094 118.101562 70.65625 117.953125 70.453125 C 117.375 69.675781 116.910156 68.832031 116.554688 67.929688 C 115.570312 65.292969 113.933594 63.019531 112.523438 60.625 C 112.410156 60.457031 112.28125 60.300781 112.136719 60.15625 C 111.386719 59.335938 110.652344 58.507812 109.832031 57.746094 C 106.789062 54.925781 103.371094 52.726562 99.476562 51.289062 C 98.859375 51.058594 98.238281 50.824219 97.65625 50.535156 C 96.960938 50.230469 96.246094 49.992188 95.503906 49.824219 C 93.554688 49.308594 91.609375 48.742188 89.671875 48.183594 C 89.472656 48.125 89.164062 48.109375 89.21875 47.730469 C 89.988281 47.554688 90.734375 47.773438 91.480469 47.828125 C 95.257812 48.089844 98.835938 49.15625 102.269531 50.703125 C 105.210938 52.011719 107.835938 53.785156 110.152344 56.027344 C 112.128906 57.945312 113.804688 60.089844 115.414062 62.300781 C 115.558594 62.511719 115.691406 62.726562 115.808594 62.953125 C 116.417969 64.066406 116.988281 65.203125 117.632812 66.292969 C 118.71875 68.125 119.414062 70.152344 120.550781 71.964844 C 121.238281 73.105469 122.121094 74.0625 123.195312 74.84375 C 123.855469 75.308594 124.484375 75.824219 125.109375 76.335938 C 125.351562 76.539062 125.511719 76.804688 125.179688 77.160156 C 123.324219 77.097656 121.488281 76.875 119.671875 76.484375 C 116.742188 75.910156 113.824219 75.304688 110.992188 74.371094 C 108.769531 73.640625 106.644531 72.683594 104.621094 71.503906 C 103.183594 70.664062 101.945312 69.511719 100.6875 68.410156 C 98.863281 66.808594 97.257812 64.957031 95.261719 63.550781 C 94.839844 63.269531 94.4375 62.960938 94.058594 62.628906 C 91.898438 60.621094 89.433594 59.011719 87.148438 57.160156 C 86.867188 56.945312 86.570312 56.75 86.265625 56.570312 C 83.90625 55.070312 81.414062 53.851562 78.78125 52.921875 C 78.460938 52.847656 78.265625 52.652344 78.1875 52.332031 Z M 141.921875 79.152344 C 141.753906 79.367188 141.683594 79.523438 141.566406 79.597656 C 140.617188 80.171875 139.675781 80.753906 138.613281 81.132812 C 137.511719 81.496094 136.382812 81.777344 135.238281 81.976562 C 132.984375 82.410156 130.722656 82.386719 128.445312 82.152344 C 125.964844 81.890625 123.589844 81.1875 121.238281 80.402344 C 118.972656 79.644531 116.886719 78.5 114.875 77.222656 C 114.617188 77.058594 114.378906 76.871094 114.15625 76.664062 C 114.015625 76.539062 113.832031 76.390625 114.097656 76.085938 C 114.785156 76.234375 115.515625 76.414062 116.253906 76.546875 C 116.992188 76.679688 117.660156 76.867188 118.3125 77.363281 C 119.097656 77.964844 120.082031 78.300781 121.011719 78.703125 C 122.605469 79.398438 124.289062 79.738281 125.972656 80.09375 C 128.511719 80.625 131.085938 80.617188 133.664062 80.492188 C 134.167969 80.449219 134.664062 80.359375 135.152344 80.222656 C 135.984375 80.019531 136.8125 79.789062 137.675781 79.761719 C 137.726562 79.761719 137.773438 79.613281 137.867188 79.453125 C 137.210938 79.164062 136.585938 78.976562 135.867188 79.246094 C 135.398438 79.441406 134.914062 79.574219 134.410156 79.644531 C 132.546875 79.832031 130.683594 79.847656 128.816406 79.6875 C 127.097656 79.554688 125.4375 79.078125 123.753906 78.746094 C 122.824219 78.570312 121.953125 78.238281 121.140625 77.75 C 121.539062 77.492188 121.835938 77.59375 122.121094 77.621094 C 123.125 77.707031 124.140625 77.925781 125.128906 77.859375 C 126.648438 77.765625 128.148438 77.890625 129.628906 78.234375 C 130.316406 78.386719 131.023438 78.453125 131.722656 78.558594 C 131.824219 78.578125 131.925781 78.585938 132.027344 78.582031 C 132.1875 78.570312 132.316406 78.484375 132.316406 78.308594 C 132.308594 78.207031 132.265625 78.128906 132.179688 78.070312 C 131.992188 77.992188 131.800781 77.9375 131.601562 77.902344 C 130.605469 77.726562 129.613281 77.546875 128.617188 77.371094 C 127.863281 77.234375 127.128906 77.082031 126.667969 76.355469 C 126.539062 76.15625 126.277344 76.042969 126.070312 75.898438 C 125.242188 75.320312 124.382812 74.785156 123.589844 74.152344 C 123.003906 73.679688 122.507812 73.085938 121.996094 72.539062 C 121.855469 72.394531 121.800781 72.183594 122.058594 71.925781 C 123.058594 72.414062 124.121094 72.878906 125.128906 73.4375 C 125.976562 73.890625 126.851562 74.28125 127.753906 74.609375 C 128.652344 74.957031 129.554688 75.28125 130.4375 75.660156 C 133.320312 76.910156 136.296875 77.875 139.363281 78.5625 C 139.429688 78.578125 139.523438 78.480469 139.589844 78.445312 C 139.640625 78.378906 139.660156 78.304688 139.644531 78.222656 C 139.628906 78.140625 139.585938 78.082031 139.515625 78.039062 C 139.292969 77.921875 139.058594 77.828125 138.816406 77.765625 C 136.421875 77.121094 134.050781 76.421875 131.773438 75.421875 C 130.847656 75.015625 129.957031 74.5 128.992188 74.230469 C 126.570312 73.554688 124.492188 72.171875 122.261719 71.101562 C 121.671875 70.800781 121.132812 70.429688 120.640625 69.984375 C 120.109375 69.527344 119.6875 68.964844 119.804688 68.207031 C 120.128906 68.015625 120.367188 68.132812 120.601562 68.207031 C 122.65625 68.945312 124.597656 69.929688 126.496094 70.988281 C 128.574219 72.144531 130.585938 73.410156 132.632812 74.625 C 132.804688 74.730469 132.988281 74.8125 133.179688 74.871094 C 133.28125 74.871094 133.359375 74.832031 133.421875 74.75 C 133.472656 74.664062 133.480469 74.570312 133.4375 74.480469 C 133.308594 74.324219 133.164062 74.191406 132.996094 74.082031 C 130.832031 72.765625 128.730469 71.335938 126.484375 70.1875 C 124.554688 69.199219 122.644531 68.152344 120.609375 67.359375 C 118.050781 66.359375 118.796875 66.78125 117.558594 64.511719 C 117.355469 64.140625 116.964844 63.78125 117.140625 63.265625 C 117.34375 63.1875 117.539062 63.203125 117.726562 63.308594 C 121.171875 64.921875 124.496094 66.738281 127.484375 69.128906 C 128.128906 69.613281 128.800781 70.0625 129.5 70.472656 C 129.691406 70.59375 129.878906 70.492188 129.933594 70.246094 C 129.886719 70.15625 129.859375 70.042969 129.789062 69.992188 C 126.203125 67.355469 122.625 64.695312 118.503906 62.921875 C 117.996094 62.699219 117.503906 62.441406 116.984375 62.246094 C 115.960938 61.859375 115.496094 61.359375 115.140625 60.140625 C 115.226562 60.097656 115.316406 60.003906 115.402344 60.015625 C 117.160156 60.320312 118.789062 61.027344 120.375 61.796875 C 121.6875 62.425781 122.933594 63.21875 124.191406 63.972656 C 126.890625 65.609375 129.296875 67.605469 131.40625 69.960938 C 133.136719 71.875 134.925781 73.742188 136.589844 75.71875 C 136.648438 75.8125 136.734375 75.871094 136.84375 75.894531 C 136.953125 75.917969 137.054688 75.898438 137.148438 75.839844 C 137.261719 75.53125 137.121094 75.28125 136.910156 75.042969 C 136.039062 74.054688 135.121094 73.109375 134.3125 72.070312 C 133.25 70.707031 131.976562 69.554688 130.863281 68.242188 C 130.367188 67.664062 129.816406 67.140625 129.214844 66.675781 C 125.886719 64.09375 122.433594 61.707031 118.453125 60.234375 C 117.003906 59.699219 115.617188 58.925781 114.023438 59.027344 C 113.457031 58.371094 112.921875 57.761719 112.40625 57.136719 C 112.292969 57 112.125 56.828125 112.386719 56.605469 C 113.183594 56.664062 113.957031 56.824219 114.714844 57.085938 C 116.25 57.585938 117.785156 58.101562 119.320312 58.628906 C 120.089844 58.875 120.84375 59.15625 121.585938 59.476562 C 124.34375 60.765625 126.953125 62.308594 129.40625 64.113281 C 132.292969 66.25 134.753906 68.738281 136.617188 71.828125 C 136.878906 72.261719 137.148438 72.691406 137.453125 73.097656 C 138.75 74.84375 140.054688 76.585938 141.351562 78.332031 C 141.527344 78.5625 141.6875 78.8125 141.921875 79.152344 Z M 166.640625 106.984375 C 166.226562 106.398438 165.769531 105.851562 165.421875 105.242188 C 164.367188 103.394531 163.308594 101.546875 162.347656 99.648438 C 161.605469 98.210938 160.953125 96.726562 160.398438 95.203125 C 158.960938 91.128906 158.097656 86.894531 157.09375 82.699219 C 157.058594 82.550781 157.039062 82.398438 157.019531 82.25 C 156.746094 80.292969 156.511719 78.328125 156.1875 76.378906 C 155.808594 74.082031 155.789062 71.722656 154.933594 69.507812 C 154.199219 67.617188 153.96875 65.566406 153.167969 63.6875 C 152.671875 62.519531 152.195312 61.347656 151.722656 60.167969 C 151.636719 59.957031 151.464844 59.710938 151.808594 59.457031 C 152.375 59.597656 152.660156 59.992188 152.859375 60.566406 C 153.492188 62.382812 154.203125 64.171875 154.820312 65.996094 C 155.75 68.730469 156.539062 71.503906 156.8125 74.414062 C 157.214844 78.726562 158.109375 82.941406 159.308594 87.09375 C 159.664062 88.308594 160.152344 89.480469 160.585938 90.671875 C 160.609375 90.777344 160.664062 90.855469 160.753906 90.914062 C 160.84375 90.96875 160.941406 90.984375 161.046875 90.960938 C 161.222656 90.535156 160.96875 90.179688 160.839844 89.804688 C 160.484375 88.75 160.023438 87.71875 159.765625 86.640625 C 159.046875 83.632812 158.125 80.667969 157.90625 77.550781 C 157.8125 76.238281 157.441406 74.949219 157.332031 73.640625 C 157.164062 71.597656 156.667969 69.644531 156.042969 67.710938 C 155.527344 66.109375 154.996094 64.53125 154.476562 62.941406 C 154.414062 62.761719 154.316406 62.558594 154.539062 62.40625 C 154.636719 62.40625 154.769531 62.390625 154.820312 62.441406 C 155.449219 63.097656 156.109375 63.730469 156.589844 64.515625 C 157.875 66.648438 158.996094 68.863281 159.957031 71.160156 C 161.230469 74.167969 161.816406 77.382812 162.582031 80.53125 C 162.914062 81.914062 163.144531 83.316406 163.265625 84.734375 C 163.40625 86.25 163.734375 87.746094 163.875 89.261719 C 164.152344 92.140625 164.359375 95.027344 164.585938 97.914062 C 164.714844 99.484375 164.964844 101.035156 165.339844 102.570312 C 165.441406 102.960938 165.570312 103.34375 165.734375 103.714844 C 165.765625 103.8125 165.828125 103.878906 165.925781 103.914062 C 166.023438 103.949219 166.113281 103.9375 166.199219 103.875 C 166.335938 103.691406 166.347656 103.496094 166.238281 103.292969 C 165.441406 101.21875 165.324219 99.023438 165.175781 96.851562 C 164.800781 91.121094 164.253906 85.417969 163.050781 79.792969 C 162.578125 77.5625 162.039062 75.347656 161.457031 73.132812 C 160.847656 70.863281 159.71875 68.8125 158.636719 66.742188 C 158.429688 66.347656 158.171875 65.976562 158.105469 65.480469 C 158.613281 65.457031 158.871094 65.808594 159.117188 66.078125 C 159.664062 66.679688 160.171875 67.308594 160.644531 67.96875 C 161.671875 69.410156 162.628906 70.910156 163.679688 72.335938 C 164.351562 73.230469 164.925781 74.183594 165.402344 75.195312 C 166.039062 76.582031 166.394531 78.070312 166.910156 79.5 C 167.824219 82.027344 168.078125 84.640625 168.128906 87.285156 C 168.167969 89.207031 168.070312 91.136719 168.015625 93.0625 C 167.988281 94.074219 167.953125 95.089844 167.878906 96.101562 C 167.582031 100.105469 167.359375 104.105469 168.183594 108.078125 C 168.214844 108.226562 168.226562 108.378906 168.25 108.53125 C 168.277344 108.640625 168.269531 108.75 168.21875 108.851562 C 168.171875 108.957031 168.09375 109.03125 167.992188 109.078125 C 167.34375 108.847656 166.828125 108.386719 166.339844 107.832031 Z M 151.515625 61.410156 C 151.832031 62.109375 152.105469 62.644531 152.324219 63.199219 C 152.96875 64.855469 153.351562 66.597656 153.941406 68.261719 C 154.777344 70.632812 155.121094 73.085938 155.480469 75.542969 C 155.65625 76.746094 155.730469 77.964844 155.898438 79.167969 C 156.128906 80.828125 156.25 82.523438 156.699219 84.121094 C 157.457031 86.753906 157.917969 89.453125 158.648438 92.097656 C 159.261719 94.402344 160.0625 96.644531 161.046875 98.816406 C 162.210938 101.355469 163.554688 103.789062 165.078125 106.125 C 165.203125 106.3125 165.433594 106.507812 165.195312 106.765625 C 164.914062 106.792969 164.703125 106.636719 164.503906 106.488281 C 162.328125 104.914062 160.308594 103.15625 158.441406 101.21875 C 157.007812 99.714844 155.773438 98.050781 154.507812 96.40625 C 153.507812 95.125 152.621094 93.769531 151.851562 92.335938 C 150.527344 89.84375 149.59375 87.246094 149.3125 84.421875 C 149.238281 83.664062 149.113281 82.917969 148.945312 82.175781 C 148.65625 80.828125 148.546875 79.464844 148.625 78.085938 C 148.734375 75.25 148.855469 72.410156 149.402344 69.609375 C 149.578125 68.667969 149.757812 67.71875 149.945312 66.777344 C 149.980469 66.601562 150.046875 66.386719 150.316406 66.40625 C 150.484375 66.617188 150.550781 66.851562 150.511719 67.121094 C 150.480469 68.234375 150.488281 69.355469 150.363281 70.460938 C 150.011719 73.433594 149.878906 76.417969 149.972656 79.410156 C 150.078125 81.546875 150.382812 83.652344 150.886719 85.726562 C 151.652344 89.078125 153.367188 92.035156 155.046875 94.976562 C 156.4375 97.414062 158.355469 99.449219 160.230469 101.5 C 160.484375 101.777344 160.714844 102.175781 161.179688 102.144531 C 161.386719 101.941406 161.292969 101.753906 161.179688 101.597656 C 160.820312 101.105469 160.433594 100.632812 160.023438 100.183594 C 157.132812 97.207031 155 93.722656 153.214844 90.003906 C 152.503906 88.539062 151.855469 87.046875 151.519531 85.449219 C 150.589844 81.042969 150.394531 76.605469 150.9375 72.132812 C 151.269531 69.105469 151.371094 66.070312 151.230469 63.023438 C 151.207031 62.539062 151.179688 62.042969 151.515625 61.410156 Z M 117.636719 73.890625 C 117.058594 74.230469 116.640625 74.015625 116.21875 73.890625 C 112.585938 72.878906 109.199219 71.328125 106.058594 69.238281 C 104.867188 68.472656 103.734375 67.621094 102.667969 66.683594 C 101.277344 65.429688 99.953125 64.109375 98.695312 62.722656 C 97.535156 61.445312 96.269531 60.285156 95.039062 59.082031 C 93.824219 57.929688 92.496094 56.929688 91.046875 56.089844 C 88.007812 54.246094 84.839844 52.707031 81.40625 51.746094 C 81.320312 51.726562 81.25 51.683594 81.199219 51.609375 C 81.148438 51.535156 81.132812 51.457031 81.144531 51.367188 C 81.4375 51.15625 81.785156 50.835938 82.1875 51.039062 C 83.230469 51.574219 84.394531 51.769531 85.453125 52.238281 C 88.1875 53.449219 90.828125 54.820312 93.167969 56.71875 C 93.796875 57.226562 94.480469 57.664062 95.117188 58.15625 C 96.765625 59.410156 98.4375 60.644531 99.933594 62.089844 C 102.042969 64.132812 104.152344 66.167969 106.5 67.949219 C 108.609375 69.539062 110.882812 70.855469 113.210938 72.082031 C 113.34375 72.15625 113.484375 72.214844 113.628906 72.257812 C 113.828125 72.316406 114.054688 72.332031 114.160156 72.117188 C 114.265625 71.902344 114.117188 71.738281 113.925781 71.65625 C 112.613281 71.101562 111.457031 70.269531 110.238281 69.554688 C 109.28125 68.992188 108.289062 68.460938 107.429688 67.757812 C 106 66.566406 104.324219 65.652344 103.179688 64.125 C 101.011719 62.382812 99.121094 60.320312 96.871094 58.671875 C 95.117188 57.386719 93.417969 56.019531 91.613281 54.816406 C 89.328125 53.28125 86.875 52.097656 84.253906 51.265625 C 83.902344 51.152344 83.441406 51.167969 83.230469 50.664062 C 83.644531 50.097656 84.292969 49.988281 84.976562 49.746094 C 85.316406 50.390625 85.941406 50.613281 86.527344 50.898438 C 88.390625 51.800781 90.265625 52.675781 92.117188 53.613281 C 96.125 55.613281 99.757812 58.15625 103.007812 61.246094 C 104.984375 63.125 106.863281 65.101562 109.015625 66.8125 C 109.765625 67.410156 110.511719 68.015625 111.246094 68.636719 C 112.90625 70.046875 114.554688 71.464844 116.351562 72.695312 C 116.800781 73.003906 117.289062 73.285156 117.636719 73.890625 Z M 150.285156 65.410156 L 150.363281 65.386719 L 150.351562 65.488281 Z M 150.285156 65.410156 " fill-opacity="1" fill-rule="nonzero"/></g><path fill="rgb(19.999695%, 33.729553%, 26.669312%)" d="M 82.601562 39.042969 C 82.898438 38.988281 83.113281 38.824219 83.242188 38.546875 C 84.539062 36.5 85.910156 34.503906 86.832031 32.230469 C 87.976562 29.402344 89.625 26.851562 91.421875 24.402344 C 91.714844 24 92.113281 23.671875 92.433594 23.285156 C 92.753906 22.898438 93.195312 22.625 93.253906 22.089844 C 92.898438 21.867188 92.703125 22.082031 92.542969 22.253906 C 91.835938 23.046875 91.0625 23.796875 90.492188 24.679688 C 89.179688 26.714844 87.746094 28.683594 86.71875 30.894531 C 86.460938 31.445312 86.226562 32.003906 85.992188 32.566406 C 85.132812 34.628906 83.964844 36.519531 82.777344 38.398438 C 82.683594 38.558594 82.539062 38.710938 82.601562 39.042969 Z M 82.601562 39.042969 " fill-opacity="1" fill-rule="nonzero"/><path fill="rgb(19.999695%, 33.729553%, 26.669312%)" d="M 165.070312 16.582031 C 164.183594 17.398438 163.367188 18.007812 162.738281 18.769531 C 160.777344 21.15625 158.84375 23.574219 156.988281 26.035156 C 155.289062 28.28125 153.253906 30.15625 151.003906 31.808594 C 150.382812 32.246094 149.734375 32.632812 149.054688 32.972656 C 147.578125 33.738281 146.105469 34.535156 144.582031 35.207031 C 142.40625 36.167969 140.152344 36.921875 137.890625 37.65625 C 137.582031 37.757812 137.183594 37.703125 137.007812 38.109375 C 137.183594 38.4375 137.453125 38.3125 137.660156 38.242188 C 141.117188 37.113281 144.597656 36.074219 147.832031 34.332031 C 149.398438 33.507812 150.914062 32.605469 152.382812 31.617188 C 153.761719 30.65625 154.988281 29.527344 156.066406 28.238281 C 157.144531 26.960938 158.179688 25.644531 159.203125 24.324219 C 160.140625 23.125 161.035156 21.882812 161.949219 20.675781 C 162.777344 19.519531 163.71875 18.460938 164.769531 17.5 C 164.957031 17.34375 165.179688 17.191406 165.070312 16.582031 Z M 165.070312 16.582031 " fill-opacity="1" fill-rule="nonzero"/><path fill="rgb(19.999695%, 33.729553%, 26.669312%)" d="M 150.339844 19.570312 C 150.128906 19.183594 149.808594 19.34375 149.542969 19.441406 C 148.40625 19.882812 147.34375 20.460938 146.355469 21.171875 C 145.09375 22.097656 143.890625 23.105469 142.6875 24.109375 C 141.289062 25.289062 140.050781 26.617188 138.964844 28.09375 C 138.300781 28.980469 137.605469 29.859375 136.925781 30.738281 C 136.804688 30.898438 136.640625 31.042969 136.742188 31.28125 C 136.933594 31.46875 137.09375 31.359375 137.222656 31.195312 C 138.152344 30.058594 139.078125 28.921875 140.007812 27.78125 C 141.902344 25.441406 144.175781 23.511719 146.617188 21.78125 C 147.5625 21.113281 148.652344 20.65625 149.667969 20.09375 C 149.902344 19.949219 150.257812 19.925781 150.339844 19.570312 Z M 150.339844 19.570312 " fill-opacity="1" fill-rule="nonzero"/><path fill="rgb(19.999695%, 33.729553%, 26.669312%)" d="M 146.449219 32.882812 C 147.1875 32.84375 147.773438 32.414062 148.328125 32.03125 C 150.277344 30.691406 152.191406 29.28125 154.125 27.90625 C 154.796875 27.429688 155.257812 26.761719 155.785156 26.152344 C 156.046875 25.886719 156.175781 25.570312 156.175781 25.195312 C 156 24.964844 155.8125 25.082031 155.691406 25.234375 C 153.847656 27.578125 151.441406 29.222656 148.972656 30.804688 C 148.25 31.265625 147.554688 31.765625 146.847656 32.25 C 146.640625 32.386719 146.398438 32.5 146.449219 32.882812 Z M 146.449219 32.882812 " fill-opacity="1" fill-rule="nonzero"/><path fill="rgb(19.999695%, 33.729553%, 26.669312%)" d="M 147.09375 28.226562 C 147.804688 28.070312 147.816406 28.078125 149.328125 26.679688 C 150.035156 26.03125 150.675781 25.328125 151.375 24.675781 C 152.035156 24.054688 152.722656 23.464844 153.402344 22.867188 C 154.109375 22.234375 154.832031 21.621094 155.578125 20.960938 C 155.457031 20.617188 155.152344 20.78125 155 20.875 C 154.480469 21.175781 153.984375 21.515625 153.519531 21.902344 C 151.308594 23.808594 149.234375 25.867188 147.191406 27.949219 C 147.132812 28.019531 147.125 28.132812 147.09375 28.226562 Z M 147.09375 28.226562 " fill-opacity="1" fill-rule="nonzero"/><path fill="rgb(19.999695%, 33.729553%, 26.669312%)" d="M 141.117188 29.164062 C 142.863281 27.546875 144.367188 26.132812 145.828125 24.660156 C 145.75 24.566406 145.652344 24.511719 145.535156 24.5 C 145.414062 24.484375 145.308594 24.515625 145.214844 24.59375 C 144.910156 24.777344 144.636719 25 144.390625 25.257812 C 143.425781 26.425781 142.28125 27.410156 141.234375 28.496094 C 141.179688 28.550781 141.199219 28.679688 141.117188 29.164062 Z M 141.117188 29.164062 " fill-opacity="1" fill-rule="nonzero"/><path fill="rgb(19.999695%, 33.729553%, 26.669312%)" d="M 200.082031 35.191406 C 199.453125 35.546875 198.949219 36.183594 198.449219 36.792969 C 197.085938 38.421875 195.746094 40.070312 194.425781 41.738281 C 193.484375 42.933594 192.59375 44.164062 191.488281 45.214844 C 189.214844 47.375 186.921875 49.484375 184.152344 51.042969 C 182.570312 51.929688 181.054688 52.9375 179.4375 53.78125 C 177.085938 54.988281 174.609375 55.847656 172.015625 56.355469 C 170.042969 56.789062 168.046875 57.117188 166.035156 57.332031 C 165.855469 57.332031 165.738281 57.421875 165.683594 57.59375 C 165.765625 57.972656 166.074219 57.960938 166.378906 57.929688 C 167.28125 57.839844 168.191406 57.78125 169.085938 57.628906 C 170.527344 57.382812 171.972656 57.171875 173.382812 56.738281 C 174.636719 56.347656 175.898438 56 177.125 55.515625 C 179.386719 54.625 181.484375 53.414062 183.601562 52.226562 C 186.710938 50.476562 189.445312 48.234375 191.964844 45.742188 C 193.183594 44.539062 194.199219 43.128906 195.316406 41.820312 C 196.894531 39.976562 198.28125 37.96875 199.992188 36.238281 C 200.167969 36.042969 200.296875 35.824219 200.382812 35.578125 C 200.425781 35.449219 200.382812 35.273438 200.082031 35.191406 Z M 200.082031 35.191406 " fill-opacity="1" fill-rule="nonzero"/><path fill="rgb(19.999695%, 33.729553%, 26.669312%)" d="M 169.941406 55.519531 C 170.109375 55.71875 170.3125 55.765625 170.550781 55.667969 C 172.648438 55.085938 174.675781 54.316406 176.628906 53.355469 C 178.675781 52.359375 180.628906 51.207031 182.492188 49.898438 C 183.324219 49.316406 184.09375 48.664062 184.808594 47.941406 C 186.765625 45.96875 188.703125 43.980469 190.6875 42.03125 C 191.699219 41.039062 192.789062 40.140625 193.957031 39.335938 C 194.207031 39.15625 194.453125 38.980469 194.683594 38.792969 C 194.835938 38.683594 194.867188 38.550781 194.785156 38.386719 C 194.75 38.316406 194.695312 38.269531 194.617188 38.246094 C 194.542969 38.226562 194.46875 38.234375 194.402344 38.277344 C 192.859375 39.234375 191.351562 40.234375 190.109375 41.597656 C 189.398438 42.378906 188.605469 43.089844 187.859375 43.847656 C 186.691406 45.039062 185.523438 46.226562 184.371094 47.433594 C 182.707031 49.171875 180.679688 50.40625 178.636719 51.609375 C 177.765625 52.121094 176.847656 52.546875 175.960938 53.023438 C 174.34375 53.882812 172.59375 54.386719 170.871094 54.953125 C 170.554688 55.058594 170.160156 55.054688 169.941406 55.519531 Z M 169.941406 55.519531 " fill-opacity="1" fill-rule="nonzero"/><path fill="rgb(19.999695%, 33.729553%, 26.669312%)" d="M 187.199219 38.246094 C 186.871094 38.042969 186.632812 38.148438 186.402344 38.246094 C 185.21875 38.691406 184.109375 39.285156 183.078125 40.023438 C 181.816406 40.949219 180.542969 41.855469 179.300781 42.808594 C 177.851562 43.914062 176.503906 45.128906 175.257812 46.457031 C 174.328125 47.457031 173.375 48.4375 172.390625 49.378906 C 171.261719 50.457031 170.128906 51.539062 168.824219 52.417969 C 168.519531 52.625 168.097656 52.816406 168.113281 53.308594 C 168.222656 53.328125 168.339844 53.390625 168.398438 53.355469 C 168.652344 53.195312 168.871094 52.980469 169.128906 52.824219 C 171.632812 51.324219 173.621094 49.226562 175.582031 47.132812 C 177.226562 45.414062 179.003906 43.847656 180.914062 42.433594 C 182.117188 41.515625 183.394531 40.703125 184.632812 39.824219 C 185.175781 39.429688 185.808594 39.246094 186.402344 38.960938 C 186.695312 38.816406 187.070312 38.753906 187.199219 38.246094 Z M 187.199219 38.246094 " fill-opacity="1" fill-rule="nonzero"/><path fill="rgb(19.999695%, 33.729553%, 26.669312%)" d="M 45.597656 66.378906 C 45.777344 66.871094 46.128906 67.078125 46.457031 67.3125 C 47.773438 68.25 49.101562 69.171875 50.390625 70.15625 C 51.402344 70.925781 52.214844 71.910156 53.003906 72.894531 C 53.890625 74 54.699219 75.167969 55.589844 76.273438 C 56.3125 77.183594 56.960938 78.144531 57.535156 79.160156 C 58.523438 80.878906 59.734375 82.4375 60.902344 84.023438 C 61.652344 85.039062 62.449219 86.023438 63.191406 87.046875 C 64.183594 88.40625 65.371094 89.554688 66.625 90.667969 C 67.949219 91.847656 69.371094 92.90625 70.714844 94.050781 C 71.878906 95.039062 73.21875 95.757812 74.464844 96.617188 C 74.597656 96.691406 74.746094 96.722656 74.898438 96.710938 C 75 96.6875 75.078125 96.628906 75.125 96.53125 C 75.171875 96.441406 75.175781 96.351562 75.132812 96.257812 C 75.054688 96.125 74.949219 96.023438 74.8125 95.949219 C 73.519531 95.339844 72.429688 94.4375 71.335938 93.535156 C 70.242188 92.632812 69.136719 91.757812 68.015625 90.882812 C 65.582031 89.007812 63.734375 86.605469 61.910156 84.171875 C 60.453125 82.226562 58.960938 80.320312 57.722656 78.210938 C 56.957031 76.898438 56.078125 75.664062 55.085938 74.507812 C 54.199219 73.480469 53.433594 72.339844 52.492188 71.339844 C 51.34375 70.117188 50.074219 69.042969 48.683594 68.113281 C 47.84375 67.554688 47.027344 66.957031 46.203125 66.371094 C 46.117188 66.296875 46.015625 66.257812 45.898438 66.257812 C 45.785156 66.261719 45.683594 66.300781 45.597656 66.378906 Z M 45.597656 66.378906 " fill-opacity="1" fill-rule="nonzero"/><path fill="rgb(19.999695%, 33.729553%, 26.669312%)" d="M 78.769531 97.25 C 78.121094 96.757812 77.585938 96.164062 77.164062 95.46875 C 75.953125 93.535156 74.976562 91.480469 74.050781 89.390625 C 73.351562 87.871094 72.578125 86.386719 71.730469 84.945312 C 70.902344 83.492188 70 82.085938 69.023438 80.730469 C 67.386719 78.46875 65.65625 76.28125 63.570312 74.429688 C 63.421875 74.296875 63.269531 74.164062 63.007812 74.265625 C 63.019531 74.398438 62.980469 74.570312 63.050781 74.675781 C 63.238281 74.976562 63.457031 75.253906 63.707031 75.5 C 66.039062 77.652344 67.773438 80.277344 69.523438 82.882812 C 70.71875 84.644531 71.800781 86.472656 72.769531 88.371094 C 72.945312 88.726562 73.121094 89.101562 73.273438 89.476562 C 74.410156 92.371094 75.90625 95.0625 77.765625 97.550781 C 78.347656 98.296875 78.996094 98.976562 79.710938 99.59375 C 80.050781 99.144531 79.863281 98.863281 79.695312 98.636719 C 79.433594 98.324219 79.15625 98.03125 78.863281 97.75 C 78.699219 97.597656 78.644531 97.414062 78.710938 97.199219 Z M 78.769531 97.25 " fill-opacity="1" fill-rule="nonzero"/><path fill="rgb(19.999695%, 33.729553%, 26.669312%)" d="M 52.171875 69.546875 C 52.882812 70.210938 53.632812 70.617188 54.355469 71.046875 C 56.453125 72.28125 58.382812 73.738281 60.148438 75.417969 C 61.210938 76.433594 62.335938 77.363281 63.335938 78.441406 C 66.140625 81.464844 68.441406 84.835938 70.242188 88.550781 C 70.984375 90.097656 71.917969 91.550781 72.78125 93.039062 C 72.871094 93.167969 72.988281 93.253906 73.136719 93.304688 C 73.207031 93.335938 73.28125 93.328125 73.347656 93.289062 C 73.417969 93.25 73.457031 93.1875 73.46875 93.109375 C 73.5 92.84375 73.433594 92.609375 73.277344 92.398438 C 72.71875 91.433594 72.152344 90.472656 71.617188 89.5 C 70.933594 88.253906 70.308594 86.984375 69.605469 85.765625 C 68.667969 84.082031 67.59375 82.496094 66.375 81.007812 C 65.433594 79.882812 64.539062 78.722656 63.503906 77.679688 C 60.859375 75.011719 58.050781 72.558594 54.824219 70.621094 C 54.21875 70.265625 53.644531 69.839844 53.054688 69.453125 C 52.828125 69.328125 52.601562 69.234375 52.171875 69.546875 Z M 52.171875 69.546875 " fill-opacity="1" fill-rule="nonzero"/><path fill="rgb(19.999695%, 33.729553%, 26.669312%)" d="M 56.550781 74.304688 C 56.65625 74.824219 57.023438 75.050781 57.289062 75.339844 C 59.507812 77.769531 61.582031 80.3125 63.515625 82.972656 C 64.886719 84.84375 66.230469 86.75 67.882812 88.402344 C 68.09375 88.613281 68.261719 88.886719 68.578125 88.957031 C 68.660156 88.972656 68.757812 88.914062 68.890625 88.875 C 68.992188 88.339844 68.589844 88.066406 68.300781 87.742188 C 67.757812 87.144531 67.152344 86.601562 66.648438 85.964844 C 65.761719 84.863281 64.886719 83.746094 64.082031 82.585938 C 62.777344 80.710938 61.234375 79.042969 59.792969 77.285156 C 59.023438 76.347656 58.199219 75.457031 57.394531 74.550781 C 57.199219 74.335938 57 74.074219 56.550781 74.304688 Z M 56.550781 74.304688 " fill-opacity="1" fill-rule="nonzero"/><path fill="rgb(19.999695%, 33.729553%, 26.669312%)" d="M 197.9375 76.261719 C 197.847656 75.9375 197.625 75.957031 197.433594 75.917969 C 193.207031 75.027344 189.203125 73.472656 185.238281 71.800781 C 183.644531 71.128906 182.1875 70.210938 180.71875 69.324219 C 178.984375 68.28125 177.332031 67.105469 175.605469 66.046875 C 173.660156 64.855469 171.691406 63.722656 169.648438 62.71875 C 169.421875 62.605469 169.1875 62.503906 168.949219 62.421875 C 168.785156 62.34375 168.652344 62.378906 168.550781 62.53125 C 168.492188 62.625 168.484375 62.722656 168.523438 62.824219 C 168.566406 62.929688 168.636719 62.992188 168.742188 63.023438 C 170.5625 63.695312 172.140625 64.800781 173.820312 65.730469 C 175.640625 66.738281 177.332031 67.941406 179.09375 69.035156 C 180.425781 69.859375 181.75 70.714844 183.085938 71.523438 C 184.742188 72.519531 186.570312 73.144531 188.347656 73.867188 C 189.609375 74.382812 190.929688 74.757812 192.195312 75.265625 C 193.808594 75.921875 195.535156 76.046875 197.199219 76.472656 C 197.480469 76.546875 197.78125 76.550781 197.9375 76.261719 Z M 197.9375 76.261719 " fill-opacity="1" fill-rule="nonzero"/><path fill="rgb(19.999695%, 33.729553%, 26.669312%)" d="M 193.003906 73.261719 C 193.15625 72.875 192.910156 72.730469 192.691406 72.644531 C 192.171875 72.449219 191.644531 72.285156 191.105469 72.148438 C 190.519531 72 189.964844 71.769531 189.445312 71.457031 C 188.449219 70.871094 187.398438 70.390625 186.363281 69.859375 C 186.285156 69.820312 186.167969 69.859375 186.074219 69.871094 C 186.007812 69.917969 185.972656 69.980469 185.964844 70.058594 C 185.957031 70.136719 185.976562 70.207031 186.03125 70.265625 C 186.207031 70.441406 186.40625 70.589844 186.632812 70.703125 C 188.28125 71.457031 189.859375 72.375 191.625 72.835938 C 192.085938 72.972656 192.488281 73.375 193.003906 73.261719 Z M 193.003906 73.261719 " fill-opacity="1" fill-rule="nonzero"/><path fill="rgb(19.999695%, 33.729553%, 26.669312%)" d="M 195.34375 60.746094 C 195.488281 60.875 195.558594 60.996094 195.628906 60.996094 C 200.035156 60.933594 204.371094 61.457031 208.6875 62.332031 C 211.757812 62.957031 214.746094 63.859375 217.71875 64.808594 C 218.253906 64.960938 218.792969 65.082031 219.34375 65.164062 C 219.484375 65.164062 219.621094 65.140625 219.753906 65.089844 C 219.804688 64.710938 219.535156 64.640625 219.308594 64.570312 C 218.542969 64.332031 217.761719 64.113281 216.992188 63.878906 C 215.398438 63.398438 213.804688 62.914062 212.210938 62.425781 C 210.414062 61.898438 208.59375 61.511719 206.738281 61.273438 C 203.65625 60.832031 200.558594 60.300781 197.421875 60.332031 C 196.96875 60.332031 196.515625 60.332031 196.0625 60.351562 C 195.753906 60.359375 195.515625 60.488281 195.34375 60.746094 Z M 195.34375 60.746094 " fill-opacity="1" fill-rule="nonzero"/><path fill="rgb(19.999695%, 33.729553%, 26.669312%)" d="M 203.632812 64.34375 C 203.929688 64.738281 204.300781 64.769531 204.628906 64.875 C 206.570312 65.457031 208.550781 65.859375 210.5625 66.085938 C 213.574219 66.425781 216.582031 66.746094 219.59375 67.03125 C 221.402344 67.207031 223.222656 67.285156 225.035156 67.40625 C 225.289062 67.425781 225.539062 67.4375 225.726562 67.210938 C 225.730469 67.105469 225.699219 67.015625 225.632812 66.9375 C 225.5625 66.859375 225.476562 66.816406 225.371094 66.8125 C 224.921875 66.730469 224.472656 66.675781 224.015625 66.652344 C 220.886719 66.542969 217.769531 66.269531 214.664062 65.835938 C 212.511719 65.546875 210.359375 65.265625 208.203125 65.007812 C 206.847656 64.84375 205.546875 64.457031 204.222656 64.148438 C 204.113281 64.101562 204.003906 64.097656 203.890625 64.136719 C 203.78125 64.171875 203.691406 64.242188 203.632812 64.34375 Z M 203.632812 64.34375 " fill-opacity="1" fill-rule="nonzero"/><path fill="rgb(19.999695%, 33.729553%, 26.669312%)" d="M 199.785156 64.746094 C 199.703125 65.03125 199.761719 65.175781 199.902344 65.242188 C 201.175781 65.828125 202.5 66.246094 203.882812 66.484375 C 202.957031 65.777344 201.417969 65.140625 199.785156 64.746094 Z M 199.785156 64.746094 " fill-opacity="1" fill-rule="nonzero"/><path fill="rgb(19.999695%, 33.729553%, 26.669312%)" d="M 218.109375 71.359375 C 219.390625 71.757812 220.277344 71.472656 221.488281 71.246094 C 220.371094 70.75 219.699219 70.792969 218.109375 71.359375 Z M 218.109375 71.359375 " fill-opacity="1" fill-rule="nonzero"/><path fill="rgb(19.999695%, 33.729553%, 26.669312%)" d="M 96.578125 54.03125 C 97.910156 55.257812 99.265625 55.761719 100.394531 56.605469 C 101.566406 57.484375 102.769531 58.332031 103.859375 59.304688 C 104.921875 60.246094 105.792969 61.371094 106.894531 62.277344 C 107.992188 63.183594 108.664062 64.453125 109.691406 65.367188 C 110.046875 65.222656 110.195312 65.011719 110.003906 64.753906 C 109.59375 64.175781 109.148438 63.625 108.664062 63.109375 C 107.847656 62.28125 106.972656 61.507812 106.125 60.714844 C 105.976562 60.574219 105.769531 60.480469 105.667969 60.316406 C 104.894531 59.074219 103.691406 58.292969 102.605469 57.402344 C 101.71875 56.667969 100.6875 56.089844 99.6875 55.503906 C 99.195312 55.25 98.722656 54.960938 98.269531 54.636719 C 97.875 54.328125 97.429688 54.121094 96.578125 54.03125 Z M 96.578125 54.03125 " fill-opacity="1" fill-rule="nonzero"/><path fill="rgb(19.999695%, 33.729553%, 26.669312%)" d="M 162.765625 72.226562 C 162.347656 72.242188 162.183594 72.371094 162.257812 72.605469 C 162.375 72.9375 162.515625 73.261719 162.683594 73.570312 C 164.226562 76.507812 165.253906 79.617188 165.773438 82.898438 C 166.09375 84.953125 166.417969 87.003906 166.503906 89.078125 C 166.585938 91.003906 166.492188 92.925781 166.386719 94.847656 C 166.335938 95.804688 166.328125 96.769531 166.3125 97.730469 C 166.304688 97.808594 166.328125 97.875 166.378906 97.933594 C 166.433594 97.992188 166.496094 98.027344 166.574219 98.03125 C 166.753906 98.050781 166.855469 97.90625 166.890625 97.765625 C 166.953125 97.519531 166.992188 97.273438 167.007812 97.019531 C 167.113281 94.542969 167.28125 92.0625 167.285156 89.582031 C 167.289062 87.957031 167.132812 86.34375 166.816406 84.746094 C 166.601562 83.65625 166.371094 82.5625 166.203125 81.460938 C 165.890625 79.386719 165.160156 77.4375 164.367188 75.519531 C 163.90625 74.40625 163.1875 73.410156 162.765625 72.226562 Z M 162.765625 72.226562 " fill-opacity="1" fill-rule="nonzero"/><path fill="rgb(19.999695%, 33.729553%, 26.669312%)" d="M 163.109375 97.027344 C 163.449219 96.839844 163.472656 96.695312 163.460938 96.546875 C 163.386719 95.027344 163.292969 93.515625 163.234375 91.996094 C 163.105469 88.851562 162.644531 85.746094 162.09375 82.652344 C 161.628906 80.003906 161.003906 77.394531 160.222656 74.824219 C 159.933594 73.867188 159.617188 72.917969 158.917969 72.121094 C 159.042969 72.644531 159.136719 73.175781 159.308594 73.6875 C 160.070312 75.996094 160.570312 78.371094 161.097656 80.738281 C 161.472656 82.417969 161.863281 84.109375 162.042969 85.816406 C 162.296875 88.179688 162.753906 90.53125 162.578125 92.929688 C 162.5 94.328125 162.675781 95.695312 163.109375 97.027344 Z M 163.109375 97.027344 " fill-opacity="1" fill-rule="nonzero"/><path fill="rgb(19.999695%, 33.729553%, 26.669312%)" d="M 152.222656 67.128906 C 151.871094 67.390625 152.023438 67.644531 152.082031 67.863281 C 153.289062 72.132812 153.851562 76.496094 154.230469 80.902344 C 154.417969 83.230469 154.78125 85.535156 155.308594 87.808594 C 155.714844 89.535156 156.019531 91.289062 156.640625 92.957031 C 156.941406 93.761719 157.308594 94.542969 157.65625 95.328125 C 157.738281 95.585938 157.894531 95.773438 158.132812 95.898438 C 158.222656 95.9375 158.316406 95.941406 158.410156 95.910156 C 158.480469 95.875 158.5625 95.730469 158.542969 95.683594 C 158.449219 95.394531 158.332031 95.117188 158.1875 94.851562 C 157.382812 93.433594 156.804688 91.925781 156.457031 90.328125 C 155.941406 88.054688 155.421875 85.773438 155.128906 83.457031 C 154.894531 81.59375 154.699219 79.71875 154.519531 77.859375 C 154.339844 76 154.164062 74.125 153.695312 72.308594 C 153.375 71.082031 153.128906 69.835938 152.832031 68.601562 C 152.703125 68.085938 152.613281 67.546875 152.222656 67.128906 Z M 152.222656 67.128906 " fill-opacity="1" fill-rule="nonzero"/><path fill="rgb(19.999695%, 33.729553%, 26.669312%)" d="M 153.125 85.425781 C 153.511719 85.003906 153.371094 84.699219 153.3125 84.417969 C 152.78125 81.777344 152.527344 79.109375 152.550781 76.414062 C 152.550781 75.757812 152.640625 75.101562 152.695312 74.445312 C 152.707031 74.292969 152.730469 74.144531 152.742188 73.992188 C 152.753906 73.785156 152.742188 73.554688 152.511719 73.503906 C 152.285156 73.449219 152.160156 73.652344 152.132812 73.859375 C 152.058594 74.464844 151.929688 75.070312 151.957031 75.671875 C 152.050781 78.355469 152.027344 81.046875 152.464844 83.703125 C 152.558594 84.300781 152.628906 84.902344 153.125 85.425781 Z M 153.125 85.425781 " fill-opacity="1" fill-rule="nonzero"/></svg>